<?xml version="1.0" encoding="utf-8"?>
<!-- Generator: Adobe Illustrator 17.0.0, SVG Export Plug-In . SVG Version: 6.00 Build 0)  -->
<!DOCTYPE svg PUBLIC "-//W3C//DTD SVG 1.1//EN" "http://www.w3.org/Graphics/SVG/1.1/DTD/svg11.dtd">
<svg version="1.1" id="Capa_1" xmlns="http://www.w3.org/2000/svg" xmlns:xlink="http://www.w3.org/1999/xlink" x="0px" y="0px"
	 width="500px" height="500px" viewBox="0 0 500 500" enable-background="new 0 0 500 500" xml:space="preserve">
<polygon fill="#B5B17C" points="0,0 500,500 500,0 "/>
<path fill="#B5B17C" d="M42.33,260.839c-0.575,0.683-0.963,1.507-1.122,2.385c-0.181,0.938-0.2,1.9-0.052,2.844
	c0.152,1.02,0.443,2.016,0.861,2.961c0.426,0.994,0.994,1.919,1.683,2.75l0.27,5.699c1.415-3.19,2.964-3.051,4.772-2.146
	c1.896,1.346,4.066,2.262,6.354,2.681c0,0-0.987,0.879-1.957,1.778l-1.883,1.813c2.451,1.278,3.745-2.373,4.949,0.103
	c-1.246,1.746-2.111,3.735-2.54,5.835l-0.309,0.875c-0.099,0.29-0.205,0.579-0.319,0.865c-0.225,0.571-0.497,1.125-0.812,1.653
	c-0.653,1.114-1.584,2.036-2.705,2.676c-1.358-0.291-2.609-0.95-3.613-1.909c0.286-0.334,0.216-0.309-0.098-0.083
	c-0.086-0.082-0.191-0.141-0.288-0.221c0.075,0.09,0.141,0.184,0.198,0.286c-0.57,0.461-1.19,0.857-1.848,1.184
	c1.582,4.395-0.62,2.977-2.854,3.075c0.883,0.453,1.73,0.974,2.531,1.56c0.337,0.251,0.637,0.499,0.905,0.742
	c0.279,0.243,0.526,0.48,0.75,0.717c0.736,0.823,1.382,1.724,1.925,2.687c1.244,2.097,3.343,3.546,5.747,3.961
	c-1.843-0.368-2.763-0.06-3.18,0.681c-0.351,1.291-0.292,2.66,0.166,3.917c0.674,3.074,1.482,6.396-3.592,5.872
	c4.249,0.999,4.513,1.567,4.58,2.052c0.07,0.47-0.034,0.833,3.495,1.164c-0.795-1.091-1.161-2.438-1.028-3.783
	c0.057-0.71,0.208-1.408,0.45-2.077c0.249-0.725,0.549-1.431,0.895-2.117c0.738-1.423,1.559-2.8,2.457-4.126l1.267-1.922
	c0.396-0.618,0.811-1.221,1.144-1.79l0.818,0.483l0.836,0.491l0.991,0.549l2.689,1.461c2.044-1.044,2.758-2.031,2.718-2.985
	c-0.19-1.116-0.792-2.12-1.686-2.814c-1.858-1.823-4.462-3.623-3.14-4.961c-1.697,1.702,0.459,4.607,2.35,4.781l-3.037,0.024
	l-3.416,0.005c-0.81-1.145-1.262-2.506-1.3-3.908c0.052-1.327,0.383-2.628,0.968-3.82c0.606-1.252,1.326-2.445,2.15-3.565
	c0.408-0.568,0.814-1.121,1.231-1.664c0.428-0.543,0.848-1.071,1.238-1.588c1.22,1.747,2.165,0.543,3.424-0.758
	c1.144-1.743,3.377-2.409,5.289-1.579l-0.662,2.809c2.445,1.059,4.349-1.757,6.239-3.349c-0.687-1.052-1.239-2.181-1.648-3.369
	c-0.222-0.617-0.398-1.251-0.524-1.894c-0.139-0.65-0.255-1.315-0.354-1.989c-0.199-1.349-0.326-2.738-0.421-4.124
	c-0.065-1.384-0.029-2.765-0.035-4.106c0.003-1.341,0-2.639-0.045-3.861c0.017-1.132-0.03-2.266-0.142-3.392
	c-0.022-1.76-0.772-3.433-2.072-4.621c1.537,1.958-0.23,5.011-2.341,6.45l-1.211-2.174l-1.208-2.211
	c-0.272,1.69,1.027,3.336,2.063,5.109c1.406,1.723,1.696,4.098,0.746,6.106c-2.485-0.226-4.987-0.091-7.432,0.402
	c-3.005,0.506-6.089-0.204-8.57-1.972c-0.67-1.044-1.118-2.218-1.311-3.446c-0.134-0.872,0.034-1.765,0.477-2.528
	c1.112-1.502,2.59-2.693,4.292-3.461c1.912-0.938,3.684-2.135,5.268-3.558c1.778-1.664,2.749-4.014,2.668-6.446
	c0.727-0.437-1.088-0.099-2.69-0.379c-0.765-0.056-1.463-0.456-1.896-1.09c-0.363-0.647-0.263-1.639,0.612-3.125
	c1.452-1.814,3.183-3.388,5.125-4.665c0.993-0.649,2.038-1.215,3.124-1.689c5.45-2.426,11.566-2.919,17.336-1.399
	c-2.065,1.221-3.923,2.762-5.506,4.566c-0.652,0.701-0.923,1.674-0.727,2.61c0.496,1.089,1.486,1.869,2.659,2.094
	c0.826-0.643,1.605-1.343,2.336-2.092c0.372-0.378,0.773-0.754,1.183-1.117c0.404-0.364,0.813-0.717,1.23-1.044
	c1.486-1.418,3.541-2.074,5.574-1.779c-3.435-2.403-4.313-1.25-5.019-0.121c-0.702,1.11-1.227,2.197-3.902-0.522
	c0.674-2.001,3.342-2.224,4.86-2.792c-1.476,0.191-2.942-0.404-3.869-1.567c-0.729-0.987-1.528-1.921-2.393-2.793
	c0.441-1.546,0.713-3.133,0.807-4.736c0.127-1.506,0.195-2.954,0.213-4.449c0.033-1.489,0.034-3.021,0.193-4.635
	c0.218-1.734,0.591-3.445,1.11-5.114c-1.341-1.348-2.935-2.413-4.693-3.138c0.517-0.383,1.089-0.687,1.695-0.902
	c0.782-0.275,1.587-0.479,2.404-0.614c1.945-0.323,3.919-0.436,5.889-0.339c3.571-0.055,7.079,0.934,10.094,2.845
	c0.701-1.284,0.946-2.768,0.692-4.207c-0.224-1.342,0.516-2.662,1.78-3.168c1.764,4.095,1.658,3.685,1.932,2.701
	c0.283-0.992,0.974-2.642,4.373-1.019c2.54-2.42-2.522-2.832-3.183-5.078c1.922-0.128,3.848,0.225,5.601,1.026
	c-2.608-2.409-5.858-4.008-9.358-4.604c-3.751-0.615-7.208-2.405-9.872-5.116c-0.764-1.247-1.368-2.588-1.793-3.989
	c-0.269-0.81-0.522-1.671-0.755-2.549c-0.219-0.869-0.399-1.743-0.566-2.606c-0.664-3.439-0.968-6.597-1.022-7.027
	c12.129,6.454,23.221,14.693,32.902,24.443c1.875,1.135,1.319-0.134,0.37-1.911c-0.485-0.895-1.034-1.893-1.433-2.765
	c-0.367-0.597-0.553-1.286-0.538-1.984c-0.788-1.89-0.645-2.981-0.012-3.588c0.871-0.604,1.937-0.866,2.99-0.728
	c2.483,0.02,5.249,0.531,5.277-1.688l-2.353-0.263l-2.381-0.234c-0.513-0.796,0.524-1.843,1.976-2.545
	c0.372-0.182,0.759-0.33,1.157-0.444c0.409-0.11,0.825-0.187,1.245-0.231c0.748-0.105,1.51-0.015,2.213,0.264
	c-2.056-1.562-4.207-2.997-6.438-4.298c-2.43-1.216-4.491-3.06-5.97-5.34c1.031-1.505,2.669-2.483,4.482-2.68
	c1.045-0.161,2.108-0.178,3.158-0.049c1.156,0.124,2.3,0.351,3.419,0.673c4.425,1.235,8.425,3.656,11.574,7.001
	c0,0-2.946,0.231-6.013,0.555l-2.26,0.248l-1.934,0.295l-1.906,0.305c1.832,1.679,4.341,2.409,6.786,1.973
	c2.778-0.239,5.503,0.874,7.318,2.99l0.662-1.14c0.402-0.68,0.913-1.625,1.512-2.487l2.332-3.566
	c-0.846,0.426-1.799,0.591-2.738,0.476c-1.421-0.136-2.628-1.094-3.085-2.445c2.99-2.222,0.688-2.079,0.713-5.934
	c-2.093-0.775-4.863-1.919-8.073-3.255c-3.193-1.321-6.867-2.876-10.5-4.285c-7.296-2.883-15.053-5.722-19.727-7.598l1.086-0.226
	c0.651-0.133,1.505-0.318,2.398-0.455l3.506-0.564l-0.768-1.793l-0.756-1.802c1.264-0.226,2.558-0.238,3.827-0.034
	c1.596,0.249,3.162,0.647,4.681,1.19c3.574,1.284,7.024,2.89,10.309,4.798c3.402,1.916,6.715,4.12,9.458,6.054
	c2.746,1.937,4.951,3.626,6.256,4.607c0.85-1.695-0.971-4.968-3.293-7.994c-1.809-2.437-3.941-4.617-6.341-6.477
	c1.436-1.234,3.467-1.496,5.169-0.669c2.144,0.855,4.183,1.951,6.077,3.27c1.018,0.65,2.02,1.298,2.986,1.861
	c0.894,0.548,1.833,1.02,2.806,1.41c1.477,0.832,3.329,0.552,4.493-0.679l-0.291,1.921l-0.268,1.906
	c1.012,0.076,2.331-1.267,3.553-2.281c1.244-0.976,2.333-1.691,2.689-0.488c-0.543-2.504-1.351-4.945-2.412-7.279
	c-0.71-1.864-1.8-3.557-3.204-4.976l1.269,0.787c1.11,0.702,2.548,1.601,4.006,2.592c2.481,1.671,4.859,3.386,5.509,3.858
	c-1.571-1.351-5.755-10.255-6.954-11.668c1.086-0.81,3.503,1.359,5.512,4.052c1.628,1.937,2.792,4.218,3.406,6.671
	c0.098-1.46,0.293-2.91,0.581-4.344c0.209-1.007,0.393-1.62,0.534-2.26c0.398-2.52,0.534-5.077,0.406-7.624
	c0.84,0.006,1.947,2.615,2.786,5.358c0.757,2.063,1.179,4.233,1.246,6.43c1.344,0.571,2.862,0.564,4.202-0.014
	c0.824-0.556,1.483-1.324,1.906-2.223c-3.24-1.113-5.967-6.404-8.287-12.333c-1.779-5.455-3.889-10.795-6.317-15.993
	c0,0,1.574,1.478,3.849,3.732c1.136,1.126,2.448,2.448,3.825,3.875c1.371,1.412,2.843,3.015,4.266,4.583
	c2.86,3.157,5.584,6.361,7.567,8.784c0.994,1.216,1.801,2.22,2.369,2.944l0.89,1.144c-0.476-0.842-1.73-3.601-2.916-6.259
	c-1.185-2.664-2.309-5.261-2.473-5.849c0.464,0.999,1.107,1.904,1.898,2.67c0.75,0.725,1.616,1.324,2.56,1.771
	c0.953,0.451,1.96,0.779,2.996,0.974c0.529,0.102,1.063,0.177,1.601,0.225c0.539,0.039,1.093,0.086,1.652,0.117
	c1.12,0.052,2.242,0.021,3.356-0.09c0.554-0.053,1.107-0.125,1.651-0.214c0.543-0.089,1.078-0.197,1.613-0.274
	c1.92-0.308,3.798-0.84,5.594-1.585l-0.963,0.124c-0.441-0.649-0.541-1.473-0.27-2.209c0.279-0.756,0.811-1.392,1.504-1.805
	c1.507-1.028,3.531-0.847,4.832,0.434c-0.656-1.808-1.111-1.164-2.11-1.095c0.823-1.916,1.756-2.057,2.684-1.323
	c1.139,1.172,2.078,2.523,2.779,3.998c0.657,1.411,1.549,2.699,2.638,3.812c0.858,0.628,1.689,0.306,2.586-1.883
	c-1.416,0.699-3.131,0.2-3.95-1.148c-0.829-1.507-1.272-3.193-1.293-4.912c0.962,0.69,2.092,1.107,3.273,1.209
	c0.597,0.088,1.201,0.147,1.796,0.226c0.587,0.096,1.166,0.237,1.729,0.424c2.206,0.756,3.761,2.503,3.263,8.061
	c0.769-0.816,1.629-1.541,2.563-2.163c0.667-0.641,1.062-1.69,0.907-4.483c0,0,2.055,1.627,4.005,3.247l1.424,1.189l1.22,1.103
	l1.172,1.075c-0.524-1.144-0.965-4.424,1.394-5.091c-1.156,0.237-2.356-0.05-3.276-0.787c-1.062-0.678-2.101-1.557-3.09-2.302
	c-0.752-0.707-1.725-1.133-2.755-1.208c-0.827,0.086-1.543,0.782-2.066,2.641c-0.191-3.406,0.115-6.047,0.179-8.541
	c0.164-2.63-0.333-5.258-1.446-7.645c1.224,0.331,2.394,0.832,3.478,1.487c1.087,0.638,2.114,1.374,3.066,2.202
	c0.969,0.835,1.868,1.746,2.692,2.724c0.84,1.025,1.629,2.091,2.362,3.196c1.448,2.217,2.779,4.51,3.988,6.866
	c1.205,2.364,2.318,4.696,3.437,6.776l1.215-0.664c0.733-0.385,1.723-0.964,2.716-1.415c1.987-0.956,4.048-1.91,4.048-1.91
	l-0.149,3.129l1.243-3.793c0.641-1.893,1.28-3.788,1.28-3.788c0.689,1.892,1.008,3.587,1.334,2.884
	c0.266-0.964,0.282-1.978,0.05-2.951c0.765,0.552,1.324,1.343,1.587,2.249c0.856-4.457,0.746-9.046-0.325-13.457
	c-0.995,1.352-1.991,2.71-2.957,3.978c-0.995-4.116-1.735-8.327,1.023-10.571c0.258,0.577,0.603,1.205,0.963,1.844
	c-0.629-3.061-0.989-5.56,0.012-6.587l0.983,0.736c0.585,0.453,1.369,1,2.129,1.646c1.504,1.252,3.01,2.503,3.01,2.503
	c-1.512,1.626-2.915,3.351-4.197,5.163c1.681,2.846,2.922,5.931,3.682,9.15c0.729,2.889-0.027,5.95-2.014,8.169l0.833-0.578
	c0.498-0.337,1.177-0.83,1.848-1.243l2.734-1.71l1.893,4.935c0.464,1.189,0.84,1.977,1.241,2.796
	c0.797,1.599,1.821,3.01,3.852,6.628c1.165-2.501,0.265-5.184,1.951-6.773c0.451,2.399,1.464,3.295,2.81,3.307
	c1.643-0.193,3.218-0.762,4.606-1.66l1.184-0.648c0.381-0.198,0.751-0.387,1.103-0.558c0.583-0.308,1.203-0.544,1.843-0.701
	c1.012-0.189,1.496,0.295,0.988,2.184c1.114,1.415,1.341,3.337,0.587,4.973c-0.246,0.834-0.534,1.657-0.683,2.453
	c-0.175,0.767-0.131,1.566,0.128,2.307c0.259-0.841,0.766-2.51,1.43-2.345l0.06,3.143l0.01,3.117
	c0.918-0.682,0.788-1.82,0.884-2.911c-0.014-1.342,1.015-2.464,2.355-2.562c1.084,2.516,2.337,4.955,3.751,7.301
	c1.212,1.724,3.225,2.704,5.33,2.597c2.286,2.155,0.203,4.167-1.74,5.912c-1.949,1.738-3.78,3.194-1.441,3.941
	c1.465-1.815,3.071-3.507,4.804-5.065c1.216-1.341,3.076-1.9,4.829-1.453c-0.273,1.682-0.711,3.335-1.31,4.929
	c-0.243,0.75-0.405,1.521-0.484,2.303c-0.08,0.804-0.007,1.616,0.217,2.394l4.008-5.809c1.951,1.851,2.826,4.128,6.137-0.041
	c-0.187,1.243,0.101,2.509,0.811,3.546c0.573,0.533,1.364,0.768,2.136,0.632c0.381,2.731-2.582,4.917-5.805,6.736
	c-3.238,1.805-6.704,3.252-7.876,4.069c2.017-0.595,4.153-0.676,6.211-0.239c0.933,0.087,1.872-0.007,2.768-0.279
	c1.518-0.53,2.959-1.266,4.277-2.188l-0.622-1.861l-0.437-1.292l-0.22-0.569c0.609-0.111,1.229-0.158,1.849-0.138
	c0.46,0.009,0.916,0.074,1.359,0.196c0.631,0.152,1.183,0.535,1.543,1.075c0.462,1.021,0.569,2.168,0.304,3.257
	c-0.146,1.059-0.27,1.894,0.461,1.943c0.732,0.053,2.306-0.675,5.593-2.664c-1.165-0.962-1.664-2.511-1.281-3.971
	c0.28-1.836,1.485-3.403,3.191-4.141c0,0,0.034,0.327,0.065,0.833l0.088,1.864l0.101,2.679c1.652-0.974-0.669-2.518,2.134-2.742
	c-0.146,0.951-0.462,2.47-0.879,4.028c-0.372,1.478-0.864,2.923-1.471,4.321l0.287-0.338c0,0,0.92,1.477,1.84,2.953l1.26,2.012
	l0.227,0.389c-0.007-0.383,0.142-0.752,0.413-1.022c0.381-0.542,1.119-0.697,1.686-0.351l-0.002,2.939l-0.035,2.885
	c0.236-0.986,1.031-1.74,2.029-1.92c0.526-0.112,1.068-0.134,1.601-0.064c0.576,0.064,1.139,0.221,1.665,0.467
	c2.607,1.765,0.118,5.065-2.032,7.762c-0.534,0.678-1.045,1.318-1.447,1.896c-0.358,0.46-0.636,0.977-0.819,1.531
	c-0.21,0.855,0.362,1.325,2.447,1.227c-0.463-0.44,0.209-1.015-0.262-1.467l1.923,0.054l1.94,0.075
	c-2.182,1.154-3.794,3.155-4.459,5.533c-0.142,1.574,0.204,3.152,0.996,4.521c0.794,1.356,1.089,2.947,0.832,4.498
	c-0.386,1.566-1.742,3.192-5.021,4.992c1.154,0.015,2.306-0.122,3.425-0.406c0.599-0.181,1.087-0.624,1.323-1.205
	c0.71-2.311,1.704-4.527,2.958-6.593l2.671,0.444l2.703,0.49c-0.152-1.494-1.704-1.97-1.125-3.992
	c1.428,0.022,2.764,0.698,3.63,1.831c0.288,0.466,0.458,0.998,0.493,1.546c0.023,0.289,0.019,0.579-0.011,0.867
	c-0.043,0.313-0.107,0.623-0.191,0.928c-0.932,2.561-2.257,4.964-3.928,7.117c1.34,0.303,3.766-1.132,5.824-1.993
	c2.07-0.869,3.756-1.085,3.589,1.732c0.024,3.845-2.661,4.48-5.316,4.841c-2.658,0.344-5.279,0.41-5.342,2.518
	c0,0,2.087-0.073,4.122-0.076c2.049-0.012,4.118,0.02,4.118,0.02c-0.802,1.296-1.208,2.797-1.169,4.32
	c0.064,1.133,0.465,2.22,1.15,3.125c0.721,0.932,1.506,1.814,2.351,2.638c0.801,0.845,1.491,1.791,2.056,2.811
	c-0.265,0.943-0.897,1.741-1.754,2.216c0.998,0.818,1.404,2.157,1.029,3.392c-0.37,1.38-0.952,2.692-1.724,3.893
	c-1.594,2.591-3.378,4.898-1.842,6.378c0.711-0.492,2.033-0.191,3.329,0.293c1.169,0.528,2.386,0.943,3.633,1.243
	c0,0-1.023,1.731-2.045,3.394c-0.49,0.832-1.054,1.658-1.474,2.27l-0.694,1.015c1.898-2.858,6.297-3.155,10.546-4.067
	c-0.181,1.017-0.709,1.938-1.491,2.612c-0.684,0.578-1.253,1.281-1.674,2.072c1.527-0.93,3.076-1.93,5.132-0.943
	c0,0-1.739,1.895-3.473,3.68c-0.888,0.897-1.824,1.775-2.504,2.421l-1.144,1.071c-0.641-0.399-1.091-1.046-1.245-1.785
	c-0.022,0.833-0.727,2.158-0.963,3.549c-0.379,1.59,0.293,3.243,1.67,4.12c1.724-0.148,3.355-0.936,5.096-1.108
	c-0.81-0.274-1.526-0.775-2.061-1.443c-0.244-0.418-0.086-0.787,0.336-1.126c1.367-0.794,2.834-1.401,4.363-1.807
	c-0.352,2.446-0.061,2.749,0.711,2.749c0.5-0.04,1.004-0.042,1.505-0.008c0.769,0.094,1.496,0.413,2.084,0.92
	c-0.376,1.845-1.857,3.264-3.716,3.562c-2.042,0.57-4.199,0.584-6.248,0.042c0.378,0.956,0.77,1.762,0.982,2.482
	c0.217,0.636,0.295,1.311,0.229,1.98c-0.177,1.243-1.106,2.452-3.514,4.075l3.045-0.014l3.036-0.032l-0.345,0.532l-0.829,1.152
	l-1.198,1.655c0,0,1.926-0.465,3.859-0.974c1.932-0.505,3.87-1.052,3.87-1.052c1.533,3.858-1.079,3.861-3.789,3.877
	c-1.238-0.101-2.482,0.095-3.63,0.569c-0.463,0.261-0.795,0.706-0.916,1.224c-0.184,0.771-0.161,1.58,0.064,2.34l5.224,0.984
	c-1.813,1.195-3.863,1.984-6.009,2.314c-1.812,0.549-2.649,1.16,0.181,2.991c-1.909,1.023-3.44-0.61-4.841-1.656
	c-1.395-1.055-2.663-1.561-3.949,1.378c1.166,0.875,2.14,1.982,2.861,3.252c0.341,0.58,0.625,1.192,0.848,1.827
	c0.204,0.56,0.375,1.132,0.508,1.711c-1.397,0.509-2.96-0.024-3.758-1.28c-0.703-0.721-1.047-1.718-0.938-2.72
	c-0.977,1.598-0.856,3.635,0.304,5.107c1.319,1.603,2.848,3.02,4.545,4.216c1.522,0.983,2.778,2.329,3.653,3.916
	c0.262,0.686,0.214,1.453-0.137,2.1c-0.559,0.959-1.382,1.737-2.368,2.245c-1.167-2.167-3.827-2.459-5.801-3.108
	c-0.891-0.19-1.683-0.702-2.222-1.437c-0.471-1.103-0.409-2.363,0.167-3.416c-0.873,0.387-1.32,1.366-1.036,2.278
	c0.116,0.517,0.275,1.025,0.476,1.515c0.192,0.522,0.422,1.062,0.629,1.599c0.838,2.137,1.321,4.285-1.995,4.769
	c0,0,1.767,0.151,3.548,0.276c1.778,0.126,3.572,0.223,3.572,0.223c-0.194,0.647-1.003,1.076-1.885,1.376
	c-0.868,0.309-1.888,0.451-2.403,0.607l4.894,1.876c-2.596,0.11-3.855,0.72-4.495,1.579c-0.519,0.906-0.774,1.939-0.734,2.982
	c-0.24,1.985-0.729,3.7-6.609,1.959c4.575,1.463,4.058,2.134,2.692,2.87c-0.763,0.339-1.501,0.733-2.208,1.177
	c-0.065,0.038-0.129,0.083-0.186,0.133c-0.531,0.455-0.594,1.254-0.139,1.786c1.52,0.112,3.025-0.358,4.21-1.316
	c0.863-0.869,1.609-1.847,2.22-2.909c0.517-0.957,1.319-1.73,2.294-2.209c1.443-0.423,2.996-0.245,4.307,0.491
	c0.808,1.432,0.015,2.024-0.766,2.589c-0.782,0.571-1.556,1.114-0.845,2.512c2.086-0.642,4.275-0.873,6.449-0.68
	c0.393,1.522,0.042,3.141-0.947,4.364c-1,1.031-2.297,1.72-3.711,1.973c-2.878,0.326-5.728,0.859-8.529,1.594l5.079-4.505
	c-3.921-1.937-4.608-1.523-5.175-0.85c-0.564,0.668-1.021,1.613-4.382,0.559c0.525,0.834,0.635,1.865,0.298,2.791
	c-0.406,0.606-0.987,1.075-1.667,1.342c-1.364,0.676-2.842,1.127-2.36,2.997c0.325-0.589,1.058-0.136,1.389-0.726
	c-0.474,0.66-0.768,1.431-0.856,2.239c-0.117,0.822-0.084,1.658,0.092,2.47c0.451,1.866,1.139,3.664,2.052,5.352
	c0.885,1.773,1.871,3.5,2.48,4.9c0.611,1.402,0.899,2.522,0.474,3.135c-0.929,1.683-2.713,2.715-4.636,2.681
	c-2.063,0.303-4.087-0.763-5.004-2.637c-0.837,0.017-0.736-0.303-0.287-0.857c0.218-0.28,0.547-0.602,0.847-1.006
	c0.325-0.421,0.616-0.869,0.867-1.336c0.6-0.957,0.663-2.153,0.168-3.168c-1.175-1.613-2.876-2.769-4.811-3.268
	c1.909,2.813,2.275,4.452,1.808,5.479c-0.116,0.253-0.287,0.48-0.501,0.66c-0.239,0.187-0.501,0.342-0.782,0.462
	c-0.67,0.269-1.362,0.481-2.068,0.632c-1.603,0.261-3.13,0.864-4.478,1.769c-1.657,1.431-2.479,3.602-2.185,5.77
	c2.148,0.166,3.966,1.643,4.571,3.71c0.735,1.662,1.295,3.297,3.791,3.289c-1.334,0.982-3.007,1.387-4.64,1.12
	c-1.581-0.44-3.12-1.012-4.604-1.712l0.88,1.961l0.866,1.974c-1.878-0.549-3.693-1.292-5.416-2.217
	c-1.205-0.653-1.956-1.177-2.686-1.546c-0.787-0.402-1.656-0.619-2.54-0.632c-0.663-0.022-1.328-0.006-1.989,0.047
	c-0.395,0.028-0.827,0.066-1.301,0.114l-1.594,0.116c2.028,0.498,2.305,2.126,2.45,3.804c0.152,1.672,0.176,3.393,1.891,3.923
	c-1.951,1.669-4.719,1.987-6.997,0.805l0.579,0.317c-1.517,0.446-2.885,1.293-3.963,2.448c-0.355,0.413-0.673,0.855-0.953,1.321
	c-0.259,0.436-0.472,0.87-0.689,1.286c-0.384,0.875-1.013,1.619-1.811,2.145c-0.539,0.315-1.128,0.535-1.742,0.652
	c-0.909,0.139-1.831,0.178-2.747,0.113l-0.523-2.506c-2.763-0.242-5.546-0.035-8.241,0.616c-1.303,0.303-2.585,0.689-3.838,1.156
	c-1.284,0.397-2.55,0.852-3.805,1.34l-1.876,0.749c-0.618,0.266-1.268,0.452-1.897,0.684c-1.267,0.44-2.531,0.875-3.791,1.266
	c-0.316,0.097-0.628,0.197-0.945,0.281l-0.961,0.211c-0.639,0.133-1.277,0.253-1.915,0.35c-1.258,0.207-2.53,0.305-3.803,0.291
	c0,0,0.175-0.165,0.425-0.447l0.919-1.012l1.091-1.21c-0.376,0.16-0.788,0.218-1.192,0.165c-0.737-0.037-1.663-0.139-2.644-0.25
	c-1.958-0.178-4.003,0.015-4.999,2.265c0.626,0.081,1.882,0.891,2.347,0.433c0.324,1.53,0.377,3.107,0.154,4.657
	c-0.105,0.745-0.329,1.471-0.66,2.148c-0.287,0.587-0.749,1.069-1.321,1.384l-1.802-3.925l-0.274,3.39
	c-1.802,0.409-1.819-1.128-1.852-2.663c-0.031-1.537-0.08-3.072-1.798-2.676c0.286,2.266-0.606,4.521-2.363,5.979
	c-0.769,0.559-1.628,0.99-2.536,1.273c-0.467,0.154-0.95,0.298-1.445,0.409c-0.497,0.096-1.004,0.179-1.512,0.261
	c-1.016,0.163-2.044,0.317-3.03,0.543c-0.96,0.219-1.897,0.53-2.798,0.927c-1.991,0.932-3.414,2.763-3.829,4.922
	c-1.488-4.281,0.286-4.705,1.989-5.017c1.722-0.314,3.382-0.516,1.704-4.387c-0.996,1.368-1.383,3.029-3.753,3.865l0.541-5.259
	c-0.661,0.225-1.302,0.455-1.921,0.689l-0.914,0.353l-0.885,0.305c-1.162,0.41-2.254,0.834-3.298,1.253l-1.532,0.626
	c-0.502,0.208-0.992,0.416-1.476,0.578c-0.968,0.346-1.911,0.677-2.85,0.976c-0.939,0.298-1.873,0.568-2.825,0.793
	c-0.238,0.053-0.479,0.112-0.718,0.155l-0.723,0.1c-0.486,0.061-0.98,0.109-1.482,0.141c-1.05,0.067-2.102,0.062-3.151-0.009
	c-0.549-0.041-1.117-0.085-1.696-0.181c-0.579-0.11-1.174-0.244-1.787-0.4l0.26,1.17c-3.838,1.491-5.746,0.334-6.48-4.466
	c-1.171,2.265,1.171,3.987-0.582,5.843c-1.009-3.603-2.313-4.934-3.85-5.075c-0.397-0.03-0.799,0.003-1.187,0.097
	c-0.426,0.085-0.841,0.215-1.24,0.384c-0.901,0.399-1.772,0.871-2.598,1.409c-1.506,1.112-3.166,1.997-4.929,2.626
	c-1.401,0.258-2.456-0.374-2.736-2.899c-1.645,5.04-4.348,9.674-7.923,13.59c-3.454,3.229-5.411,7.747-5.407,12.475l-2.581-2.25
	c-0.389,1.273-0.037,2.657,0.91,3.593c0.44,0.396,0.938,0.723,1.476,0.968c0.588,0.26,1.191,0.487,1.805,0.674
	c2.501,0.839,5.065,1.73,5.001,5.512l0.513-0.174c0.325-0.113,0.788-0.265,1.35-0.487c1.121-0.428,2.602-1.003,4.06-1.585
	c1.459-0.582,2.898-1.169,3.965-1.614l1.287-0.539c0.308-0.126,0.487-0.215,0.487-0.215c-0.886,2.508-0.03,6.637-1.856,7.189
	c1.25,0.319,2.409,0.669,2.752,1.326c0.339,0.656-0.126,1.618-2.203,3.129c1.71-0.749,3.458-1.409,5.235-1.979
	c1.7-0.541,3.356-0.951,5.002-1.376c1.596-0.386,3.211-0.686,4.839-0.9c0.795-0.104,1.584-0.187,2.369-0.25
	c0.788-0.088,1.573-0.17,2.354-0.227c1.562-0.115,3.113-0.159,4.655-0.143c0.773-0.002,1.541,0.049,2.312,0.045
	c0.77,0.002,1.54,0.015,2.309,0.04c1.539,0.05,3.074,0.146,4.61,0.269l1.152,0.098l1.153,0.06l2.31,0.135l4.629,0.324
	c1.545,0.097,3.088,0.103,4.635,0.141c1.545,0.026,3.093,0.041,4.637,0.017c1.538-0.086,3.075-0.204,4.603-0.367
	c0.765-0.08,1.526-0.175,2.286-0.28c0.759-0.113,1.521-0.206,2.268-0.389c1.499-0.335,2.984-0.728,4.448-1.196
	c0.732-0.233,1.458-0.485,2.178-0.758c0.359-0.138,0.72-0.271,1.075-0.427c0.354-0.162,0.706-0.331,1.057-0.504
	c1.413-0.698,2.783-1.483,4.1-2.35c1.706,0.281,1.342,2.864,1.059,4.587c0.743-1.872,1.399-2.644,2.038-2.748
	c0.633-0.124,1.24,0.416,1.85,1.209c1.218,1.585,2.449,4.157,3.789,4.3c0,0,1.037-2.768,1.976-5.514l0.683-2.015l0.564-1.794
	l0.532-1.746c1.345,0.782,2.253,2.143,2.456,3.686c0.071,1.195,0.239,2.383,0.506,3.55c1.561-0.238,3.094-0.627,4.58-1.163
	c0.37-0.132,0.737-0.27,1.099-0.417c0.358-0.162,0.711-0.328,1.064-0.501c0.703-0.346,1.393-0.715,2.075-1.101
	c1.361-0.771,2.679-1.606,3.965-2.458c1.28-0.862,2.499-1.82,3.719-2.696c1.216-0.887,2.417-1.739,3.625-2.506
	c1.154-0.793,2.358-1.51,3.604-2.15c1.206-0.61,2.48-1.075,3.795-1.387c0.662-0.14,1.322-0.279,2.003-0.365
	c0.699-0.086,1.402-0.119,2.106-0.099c0.361-1.895-0.125-3.853-1.332-5.358c-0.843-1.438-1.432-2.69,0.058-4.168
	c-0.006,2.841,0.752,4.186,1.962,4.694c1.486,0.401,3.062,0.293,4.48-0.306c3.011-0.922,6.098-2.275,6.748,0.668
	c-0.124-0.951-0.119-1.914,0.015-2.865c0.133-0.983,0.423-1.938,0.857-2.829c0.836-1.498,1.816-2.912,2.927-4.221
	c1.034-1.174,1.55-2.717,1.431-4.277c-0.563-2.475-1.878-4.713-3.763-6.411c3.236-3.462,6.945,2.683,6.591,4.595
	c1.879-1.833,3.963-3.448,6.21-4.806c1.135-0.599,2.35-1.034,3.608-1.29c1.44-0.325,2.918-0.446,4.393-0.365
	c0.102-0.756,0.439-1.459,0.965-2.012c0.338-0.415,0.697-0.809,1.078-1.185l1.36-1.322c0.967-0.947,2.089-1.973,3.271-3.068
	c1.254-1.115,2.449-2.294,3.583-3.529c2.355-2.368,4.264-5.14,5.638-8.182c0.576-1.359,0.899-2.811,0.958-4.285
	c0.046-1.449-0.297-2.884-0.996-4.153c0.534,1.201,1.228,2.325,2.063,3.341c0.316,0.446,0.919,0.581,1.397,0.313
	c0.891-0.478,1.889-1.944,4.161-2.357l1.615,3.147l1.581,3.192l2.102-3.373l1.435-2.317c0.397-0.624,0.628-1.066,0.628-1.066
	c1.399-0.983,1.44-1.512,0.953-1.836c0.489-1.271-3.178-1.834-2.676-5.475c0.489-0.935,1.184-1.747,2.038-2.37
	c0.664-0.476,1.433-0.785,2.24-0.902c1.609-0.275,3.466-0.064,5.644-0.489l0.382,1.194l2.415-2.854
	c0.616-1.214-1.995,0.068-4.508,0.427c-2.52,0.372-4.921-0.193-4.158-4.617c0.773,0.261,1.586,0.386,2.401,0.371
	c0.585,0.016,1.171,0.001,1.755-0.046c0.593-0.053,1.183-0.147,1.764-0.28c2.27-0.528,4.016-1.75,2.546-3.845
	c-1.81,4.077-5.407,1.397-6.307-0.88l1.215-2.75l0.831-1.888c0.116-0.255,0.198-0.476,0.256-0.63l0.093-0.24l0.993,0.844
	l2.162,1.864l3.106,2.736c0.249-0.503,0.512-1,0.732-1.517l0.65-1.561c0.422-1.047,0.832-2.101,1.225-3.165
	c0.392-1.065,0.77-2.136,1.137-3.212c0.361-1.077,0.639-2.191,0.946-3.294c0.589-2.215,1.169-4.432,1.669-6.677
	c0.426-2.26,0.853-4.529,1.284-6.805l0.317-1.699c0.102-0.568,0.17-1.147,0.256-1.719l0.51-3.434
	c0.182-1.137,0.364-2.276,0.544-3.417c0.103-0.566,0.174-1.14,0.246-1.715l0.231-1.72c0.16-1.145,0.332-2.286,0.518-3.424
	l0.301-1.684c0.104-0.568,0.209-1.134,0.282-1.708c0.334-2.286,0.739-4.563,1.236-6.833c-0.718-0.064-1.399-0.353-1.943-0.826
	c-0.432-0.438-0.738-0.983-0.89-1.578c-0.277-1.434-0.386-2.896-0.325-4.355c0.097-1.446-0.255-2.887-1.009-4.124
	c-1.263-1.339-3.119-1.946-4.93-1.615l0.929,0.776c-0.185,0.858-0.985,1.441-1.861,1.355c-0.945-0.163-1.815-0.615-2.493-1.294
	c-1.646-1.459-2.948-3.747-2.215-5.367c1.485,1.891,4.213,0.555,6.673-0.258c2.457-0.799,4.648-1.027,5.003,3.622
	c0,0,1.38-1.648,2.762-3.354c0.691-0.85,1.391-1.711,1.861-2.366l0.813-1.094c5.006-0.743,7.461-2.443,8.424-4.714
	c0.239-0.574,0.394-1.18,0.458-1.799c0.042-0.657,0.016-1.316-0.081-1.968c-0.24-1.468-0.628-2.907-1.163-4.294
	c-0.27-0.745-0.568-1.498-0.876-2.259c-0.298-0.761-0.679-1.524-1.014-2.292c-0.697-1.504-1.314-3.046-1.846-4.615
	c-0.246-0.754-0.449-1.522-0.607-2.3c-0.183-0.748-0.303-1.51-0.355-2.279c-0.114-1.548,0.143-3.1,0.749-4.53
	c-0.599,0.704-1.413,1.189-2.317,1.384c0.318-0.644,0.579-1.315,0.778-2.006c0.198-0.654,0.32-1.327,0.363-2.007
	c0.084-1.321-0.023-2.646-0.314-3.936c-0.288-1.276-0.699-2.522-1.227-3.718c-0.558-1.152-1.183-2.269-1.872-3.345
	c-0.66-1.046-1.333-2.02-1.949-2.914l-1.649-2.423c-0.939-1.44-1.366-2.546-0.74-3.296l-5.505,0.542
	c0.76-1.253,1.428-2.383,2.003-3.414c0.507-0.908,0.969-1.843,1.377-2.801c0.666-1.398,1.041-2.917,1.099-4.464
	c0.055-2.719-1.592-5.163-4.887-9.278c-0.772,0.442-1.857,2.071-3.46,1.016c1.541-1.695,2.716-3.691,3.454-5.86
	c0.312-1.148,0.365-2.351,0.154-3.521c-0.117-0.681-0.314-1.345-0.588-1.98c-0.339-0.737-0.74-1.446-1.202-2.113l-1.438,0.979
	l-1.921-5.099c-0.231-0.645-0.508-1.265-0.76-1.852l-0.691-1.604l-0.677-1.567c-3.703,2.002-5.518,1.707-6.432,0.231
	c-0.487-0.917-0.798-1.917-0.921-2.947c-0.188-1.185-0.285-2.54-0.414-3.923c-0.063-0.692-0.136-1.388-0.23-2.074
	c-0.048-0.342-0.097-0.683-0.161-1.014c-0.071-0.328-0.149-0.648-0.237-0.962c-0.279-1.176-0.812-2.274-1.563-3.22
	c-0.751-0.887-1.838-1.418-3-1.468c-0.747-0.037-1.498,0.043-2.222,0.236c-0.976,0.259-1.925,0.617-2.831,1.062
	c1.233-2.517,1.486-5.404,0.708-8.098c-0.284-1.426-0.639-2.836-1.065-4.224c-0.363-1.189-0.632-2.406-0.803-3.637
	c-0.656,0.495-1.448,0.773-2.269,0.797c0.476-0.912,0.75-1.914,0.807-2.942c0.018-0.755-0.203-1.494-0.637-2.11
	c-1.03-1.221-2.414-2.094-3.962-2.496c-0.834-0.285-1.71-0.527-2.575-0.757c-0.875-0.22-1.759-0.409-2.561-0.638
	c-1.387-0.226-2.648-0.934-3.559-2.002c-0.577-3.651,2.299-4.829,5.286-5.905c-1.015,0.107-2.041-0.076-2.956-0.527
	c-0.836-0.412-1.557-1.028-2.096-1.789c-1.165-1.813-1.984-3.825-2.417-5.937c-1.209-4.32-1.933-8.828-3.765-8.39
	c-0.753-0.543-1.732-0.664-2.593-0.318c-0.802,0.405-1.488,1.005-2,1.744c-1.099,1.782-2.446,3.397-4.003,4.795
	c-2.101-2.586,0.377-5.487,2.037-7.706c0.828-1.111,1.441-2.055,1.133-2.735c-0.311-0.668-1.535-1.115-4.366-1.075
	c0.459,1.194,1.655,2.861,0.472,3.203c-1.783-0.498-6.797,2.443-11.184,4.933c-1.854,1.125-3.8,2.095-5.815,2.898
	c-1.532,0.498-2.597,0.463-2.743-0.775l1.688-0.745l1.17-0.505l0.53-0.222c-0.7-1.55-2.321-2.472-4.013-2.281
	c-1.934,0.062-3.855,0.354-5.722,0.87c-3.694,0.91-6.294,1.418-4.069-3.839l2.945-4.421c-1.203,0.151-2.417,0.232-3.631,0.249
	c-0.715,0.037-1.432-0.011-2.134-0.146c-0.734-0.135-1.37-0.586-1.741-1.233c-0.374-0.661-0.982-1.158-1.705-1.391
	c-1.832-0.449-3.744-0.459-5.582-0.03l-0.224,0.842c-1.825-1.309-3.912-0.661-5.363-0.761c-1.45-0.128-2.326-0.885-1.877-5.25
	l1.844-0.56c-1.715-0.915-3.529-1.637-5.404-2.15c-0.743-0.188-1.488-0.37-2.406-0.546c-0.923-0.165-2.003-0.364-3.385-0.666
	c-0.389-0.969-2.687-2.976-3.924-1.477c0.846-3.475-2.222-5.054-5.803-5.807c-0.899-0.185-1.806-0.323-2.72-0.415
	c-0.913-0.056-1.8-0.075-2.616-0.078c-1.629-0.005-2.962,0.062-3.61,0.046c4.284,1.873,1.542,4.407-0.193,7.001
	c-0.733-3.076-1.567-4.852-2.737-5.425c-1.178-0.522-2.7,0.168-4.779,1.973c0.527-4.173,0.496-8.399-0.091-12.563
	c-0.293-1.7-1.008-3.301-2.079-4.656c-1.166-1.284-2.754-2.106-4.474-2.316c1.106,1.428,2.917,2.335,1.956,4.061
	c-0.967,1.737-2.557-0.4-3.118-1.111c-0.913,1.736,1.422,3.346,0.291,6.308c-0.66-1.661-1.84-3.062-3.364-3.994
	c-0.551-0.29-1.159-0.449-1.781-0.466c-0.626-0.02-1.253,0.024-1.869,0.138c-1.281,0.212-2.633,0.592-4.123,0.717
	c-0.783,0.065-1.572,0.049-2.353-0.047c-0.906-0.094-1.795-0.309-2.643-0.644c2.37,2.614,0.299,4.35-0.5,7.39
	c-0.291-4.975-2.832-2.792-4.832-0.969c-1.007,0.909-1.889,1.803-2.392,1.602c-0.501-0.189-0.639-1.431-0.085-4.679
	c-1.76,1.051-3.622,1.918-5.561,2.583l-1.461,0.489c-0.488,0.171-0.981,0.332-1.478,0.485c-0.991,0.306-1.996,0.577-3.005,0.824
	c-1.011,0.246-2.028,0.464-3.048,0.663c-0.51,0.092-1.018,0.21-1.524,0.324l-1.519,0.325c-2.022,0.42-4.027,0.786-5.964,1.148
	c-1.92,0.444-3.772,0.886-5.496,1.368c-0.862,0.241-1.69,0.492-2.48,0.759c-0.756,0.276-1.497,0.59-2.219,0.944
	c-2.508,0.929-4.505,2.875-5.498,5.357c-0.195,1.946-1.584,1.787-3.259,1.224c-1.503-0.753-3.147-1.177-4.826-1.246l1.688,4.039
	c-1.518-0.985-3.134-1.805-4.821-2.454c-0.886-0.319-1.81-0.523-2.748-0.61c-1.014-0.094-2.02-0.271-3.005-0.529
	c-1.952-0.512-3.869-1.152-5.734-1.919c5.142,3.48,4.609,6.289,3.25,11.312c0,0-2.116-1.578-4.299-3.112
	c-2.156-1.489-4.38-2.945-4.38-2.945l0.939,3.289l0.957,3.279c-1.212-0.655-2.672-0.646-3.877,0.018
	c-0.269,0.15-0.526,0.322-0.768,0.512c-0.245,0.21-0.477,0.432-0.698,0.667c-0.435,0.458-0.845,0.965-1.252,1.474
	c-2.144-2.095-5.108-3.126-8.087-2.808c-3.171,0.192-6.12,0.98-7.97-0.505c0.648,2.276,0.541,3.492,0.063,4.196
	c-0.541,0.643-1.322,1.034-2.16,1.084c-1.689,0.336-3.389,0.601-1.733,4.643c-1.368-0.585-2.84-0.891-4.33-0.898
	c-1.322-3.983-3.484-7.935-4.275-4.935c-0.182,0.06-0.36,0.13-0.536,0.209l2.289,4.899c-1.235,0.182-2.446,0.489-3.616,0.917
	c-0.933,0.317-1.821,0.758-2.638,1.308c0.282-1.166,0.39-2.368,0.319-3.565c-0.173,0.629-0.31,1.267-0.413,1.911
	c-0.105,0.647-0.179,1.31-0.272,1.927c-0.229,0.168-0.438,0.363-0.618,0.584c0.195,0.031,0.393-0.01,0.56-0.115
	c-0.003,0.163-0.018,0.328-0.047,0.49c-0.305,1.794-2.006,3.001-3.8,2.696c-0.161,2.39-1.552,4.528-3.673,5.643
	c-2.288,1.05-4.667,1.889-7.108,2.507c-2.483,0.612-4.805,1.758-6.802,3.359c-1.971,2.004-2.779,4.877-2.143,7.615
	c0.063-1.771,1.03-3.553,2.766-2.652c-1.357,1.357-2.441,2.963-3.189,4.732c-0.752,1.797-1.308,3.674-1.88,5.398
	c-1.194,3.418-2.209,6.384-5.271,7.06l-3.761-3.212c-1.29,0.801-2.528,1.559-3.646,2.342c-1.095,0.797-2.115,1.592-3.051,2.407
	c-0.909,0.784-1.762,1.633-2.549,2.539c-0.383,0.443-0.741,0.899-1.077,1.367c-0.318,0.484-0.609,0.983-0.876,1.496l-4.875-2.741
	c-0.73,2.031-1.869,3.888-3.346,5.459c-0.808,0.939-1.599,1.952-2.413,2.975c-0.809,1.026-1.617,2.075-2.347,3.146
	c-0.727,1.028-1.354,2.122-1.877,3.266c-0.457,1.074-0.746,2.213-0.856,3.377c-0.181,2.508,0.83,4.956,2.727,6.605
	c-2.418-0.185-3.016,2.153-3.375,4.843c-0.003,2.536-0.61,5.034-1.773,7.288l3.695,2.385c-0.088,2.084-0.693,4.112-1.763,5.902
	c-0.863,1.422-1.857,2.76-2.969,3.996c1.229,2.501,1.808,5.272,1.685,8.054c-0.2,2.348-0.864,4.631-1.952,6.721
	c-2.388,3.928-4.088,8.236-5.025,12.739l1.208,0.253c0,0-1.065,2.09-2.129,4.183c-0.515,1.057-0.978,2.128-1.346,2.933l-0.602,1.345
	c2.035-0.982,1.331-0.609,0.22,0.36C43.428,257.854,41.91,259.461,42.33,260.839z M378.289,374.74l0.462,1.801
	C377.062,376.295,375.496,376.134,378.289,374.74z M318.02,171.128c1.231-0.12,2.515-0.588,3.086-0.34
	c0.558,0.262,0.425,1.217-1.188,3.871c-1.318,0.922-1.757,0.412-1.879-0.529C317.976,173.131,317.971,172.129,318.02,171.128z
	 M251.096,126.722c-1.713,1.801-3.034,2.454-3.662,0.643C248.359,126.331,249.872,126.064,251.096,126.722L251.096,126.722z
	 M151.199,121.173c1.004-0.42,0.724,0.39,1.213,1.485C152.049,122.131,151.645,121.634,151.199,121.173z M47.207,267.361
	c-0.094,0.036-0.183,0.084-0.267,0.14C46.04,265.309,45.262,264.171,47.207,267.361z"/>
</svg>
