<?xml version="1.0" encoding="utf-8"?>
<!-- Generator: Adobe Illustrator 17.0.0, SVG Export Plug-In . SVG Version: 6.00 Build 0)  -->
<!DOCTYPE svg PUBLIC "-//W3C//DTD SVG 1.1//EN" "http://www.w3.org/Graphics/SVG/1.1/DTD/svg11.dtd">
<svg version="1.1" id="Capa_1" xmlns="http://www.w3.org/2000/svg" xmlns:xlink="http://www.w3.org/1999/xlink" x="0px" y="0px"
	 width="500px" height="500px" viewBox="0 0 500 500" enable-background="new 0 0 500 500" xml:space="preserve">
<polygon fill="#B5B17C" points="0,0 0,500 500,0 "/>
<path fill="#B5B17C" d="M455.462,256.886c-1.11-0.969-1.815-1.342,0.22-0.36l-0.602-1.345c-0.368-0.805-0.831-1.877-1.346-2.933
	c-1.064-2.093-2.129-4.183-2.129-4.183l1.208-0.253c-0.937-4.502-2.636-8.811-5.025-12.739c-1.089-2.09-1.752-4.373-1.952-6.721
	c-0.123-2.782,0.456-5.553,1.685-8.054c-1.112-1.236-2.106-2.574-2.969-3.996c-1.07-1.789-1.675-3.818-1.763-5.902l3.695-2.385
	c-1.163-2.255-1.771-4.753-1.773-7.288c-0.359-2.69-0.957-5.028-3.375-4.843c1.897-1.649,2.907-4.097,2.727-6.605
	c-0.11-1.163-0.399-2.303-0.856-3.377c-0.523-1.144-1.15-2.237-1.877-3.266c-0.729-1.071-1.538-2.121-2.347-3.146
	c-0.815-1.023-1.606-2.036-2.413-2.975c-1.477-1.572-2.616-3.428-3.346-5.459l-4.875,2.741c-0.267-0.514-0.558-1.013-0.876-1.496
	c-0.336-0.468-0.694-0.924-1.077-1.367c-0.787-0.905-1.64-1.754-2.549-2.539c-0.935-0.815-1.955-1.611-3.051-2.407
	c-1.118-0.782-2.356-1.54-3.646-2.342l-3.761,3.212c-3.062-0.676-4.077-3.642-5.271-7.06c-0.572-1.725-1.128-3.601-1.88-5.398
	c-0.748-1.769-1.832-3.375-3.189-4.732c1.736-0.902,2.702,0.881,2.766,2.652c0.636-2.738-0.172-5.611-2.143-7.615
	c-1.997-1.6-4.319-2.746-6.802-3.359c-2.441-0.619-4.82-1.457-7.108-2.507c-2.121-1.115-3.512-3.253-3.673-5.643
	c-1.794,0.305-3.495-0.902-3.8-2.696c-0.028-0.162-0.044-0.327-0.047-0.49c0.167,0.105,0.365,0.146,0.56,0.115
	c-0.18-0.221-0.389-0.416-0.618-0.584c-0.094-0.617-0.167-1.28-0.272-1.927c-0.103-0.643-0.24-1.281-0.413-1.911
	c-0.071,1.197,0.036,2.399,0.319,3.565c-0.817-0.55-1.705-0.991-2.638-1.308c-1.17-0.428-2.381-0.735-3.616-0.917l2.289-4.899
	c-0.176-0.079-0.354-0.149-0.536-0.209c-0.791-3.001-2.953,0.951-4.275,4.935c-1.49,0.007-2.962,0.313-4.33,0.898
	c1.656-4.042-0.044-4.307-1.733-4.643c-0.838-0.05-1.619-0.441-2.16-1.084c-0.478-0.704-0.585-1.92,0.063-4.196
	c-1.85,1.486-4.799,0.698-7.97,0.505c-2.979-0.318-5.944,0.713-8.087,2.808c-0.408-0.509-0.817-1.016-1.252-1.474
	c-0.221-0.234-0.453-0.457-0.698-0.667c-0.242-0.191-0.499-0.363-0.768-0.512c-1.205-0.664-2.665-0.673-3.877-0.018l0.957-3.279
	l0.939-3.289c0,0-2.224,1.455-4.38,2.945c-2.183,1.534-4.299,3.112-4.299,3.112c-1.358-5.022-1.892-7.832,3.25-11.312
	c-1.865,0.768-3.782,1.407-5.734,1.919c-0.986,0.258-1.991,0.435-3.005,0.529c-0.939,0.087-1.862,0.291-2.748,0.61
	c-1.688,0.649-3.304,1.47-4.822,2.454l1.688-4.039c-1.679,0.069-3.323,0.494-4.826,1.246c-1.675,0.564-3.064,0.722-3.259-1.224
	c-0.993-2.482-2.99-4.428-5.498-5.357c-0.722-0.354-1.463-0.668-2.219-0.944c-0.79-0.267-1.619-0.518-2.48-0.759
	c-1.724-0.481-3.576-0.923-5.496-1.368c-1.937-0.362-3.942-0.728-5.964-1.148l-1.519-0.325c-0.507-0.114-1.014-0.232-1.524-0.324
	c-1.02-0.199-2.037-0.417-3.048-0.663c-1.009-0.247-2.014-0.518-3.005-0.824c-0.497-0.154-0.989-0.314-1.478-0.485l-1.461-0.489
	c-1.938-0.666-3.8-1.532-5.561-2.583c0.554,3.247,0.417,4.49-0.085,4.679c-0.503,0.201-1.385-0.693-2.392-1.602
	c-2-1.823-4.541-4.006-4.832,0.969c-0.799-3.04-2.87-4.776-0.5-7.39c-0.848,0.335-1.737,0.55-2.643,0.644
	c-0.781,0.097-1.57,0.112-2.353,0.047c-1.491-0.125-2.843-0.505-4.123-0.717c-0.615-0.114-1.243-0.159-1.869-0.138
	c-0.623,0.018-1.231,0.177-1.781,0.466c-1.524,0.933-2.704,2.334-3.364,3.994c-1.131-2.962,1.204-4.572,0.291-6.308
	c-0.561,0.711-2.151,2.847-3.118,1.111c-0.961-1.726,0.851-2.633,1.956-4.061c-1.72,0.209-3.308,1.032-4.474,2.316
	c-1.071,1.355-1.786,2.956-2.079,4.656c-0.587,4.165-0.618,8.39-0.091,12.563c-2.079-1.805-3.601-2.495-4.779-1.973
	c-1.169,0.573-2.004,2.35-2.737,5.425c-1.735-2.595-4.477-5.129-0.193-7.001c-0.648,0.017-1.981-0.051-3.61-0.046
	c-0.815,0.003-1.702,0.022-2.616,0.078c-0.914,0.092-1.821,0.229-2.72,0.415c-3.581,0.753-6.649,2.331-5.803,5.807
	c-1.238-1.499-3.535,0.508-3.924,1.477c-1.382,0.302-2.462,0.501-3.385,0.666c-0.917,0.175-1.663,0.358-2.406,0.546
	c-1.875,0.513-3.688,1.234-5.404,2.15l1.844,0.56c0.449,4.365-0.427,5.122-1.877,5.25c-1.452,0.1-3.538-0.548-5.363,0.761
	l-0.223-0.842c-1.838-0.429-3.75-0.419-5.582,0.03c-0.724,0.233-1.332,0.73-1.705,1.391c-0.371,0.647-1.007,1.098-1.741,1.233
	c-0.702,0.134-1.419,0.183-2.134,0.146c-1.214-0.016-2.427-0.098-3.631-0.249l2.945,4.421c2.225,5.256-0.375,4.748-4.069,3.839
	c-1.867-0.516-3.788-0.808-5.722-0.87c-1.692-0.192-3.313,0.731-4.013,2.281l0.53,0.222l1.17,0.505l1.688,0.745
	c-0.146,1.238-1.211,1.273-2.743,0.775c-2.015-0.803-3.961-1.773-5.815-2.898c-4.387-2.49-9.401-5.431-11.184-4.933
	c-1.182-0.343,0.014-2.01,0.472-3.203c-2.831-0.039-4.055,0.407-4.366,1.075c-0.309,0.68,0.305,1.624,1.133,2.735
	c1.66,2.219,4.137,5.119,2.037,7.706c-1.557-1.398-2.905-3.013-4.003-4.795c-0.511-0.739-1.198-1.339-2-1.744
	c-0.861-0.346-1.84-0.225-2.593,0.318c-1.832-0.438-2.555,4.07-3.765,8.39c-0.434,2.111-1.253,4.124-2.417,5.937
	c-0.539,0.762-1.26,1.377-2.096,1.789c-0.915,0.451-1.941,0.635-2.956,0.527c2.986,1.077,5.863,2.254,5.286,5.905
	c-0.911,1.069-2.172,1.777-3.559,2.002c-0.802,0.229-1.686,0.418-2.561,0.638c-0.865,0.23-1.741,0.472-2.575,0.757
	c-1.547,0.402-2.932,1.275-3.962,2.496c-0.434,0.616-0.656,1.356-0.637,2.11c0.057,1.028,0.33,2.03,0.807,2.942
	c-0.821-0.024-1.613-0.302-2.269-0.797c-0.171,1.231-0.439,2.448-0.803,3.637c-0.426,1.389-0.78,2.799-1.065,4.224
	c-0.778,2.694-0.525,5.58,0.708,8.098c-0.907-0.445-1.855-0.803-2.831-1.062c-0.724-0.193-1.475-0.272-2.222-0.236
	c-1.161,0.05-2.248,0.581-3,1.468c-0.751,0.946-1.285,2.044-1.563,3.22c-0.087,0.314-0.166,0.634-0.237,0.962
	c-0.064,0.331-0.113,0.672-0.161,1.014c-0.094,0.686-0.166,1.382-0.23,2.074c-0.129,1.383-0.226,2.737-0.414,3.923
	c-0.122,1.03-0.434,2.03-0.921,2.947c-0.914,1.476-2.73,1.772-6.432-0.231l-0.677,1.567l-0.691,1.604
	c-0.252,0.588-0.529,1.208-0.76,1.852l-1.921,5.099l-1.438-0.979c-0.461,0.667-0.863,1.375-1.202,2.113
	c-0.274,0.635-0.471,1.299-0.588,1.98c-0.211,1.17-0.158,2.372,0.154,3.521c0.737,2.17,1.912,4.165,3.454,5.86
	c-1.603,1.055-2.688-0.573-3.46-1.016c-3.295,4.115-4.942,6.559-4.887,9.278c0.058,1.547,0.433,3.066,1.099,4.464
	c0.408,0.957,0.87,1.892,1.377,2.801c0.575,1.031,1.243,2.162,2.003,3.414l-5.505-0.542c0.626,0.75,0.199,1.857-0.74,3.296
	l-1.649,2.423c-0.616,0.893-1.288,1.867-1.949,2.914c-0.69,1.076-1.314,2.192-1.872,3.345c-0.528,1.196-0.939,2.441-1.227,3.718
	c-0.291,1.291-0.398,2.616-0.314,3.936c0.043,0.681,0.166,1.354,0.363,2.007c0.199,0.691,0.46,1.362,0.778,2.006
	c-0.904-0.195-1.718-0.68-2.317-1.384c0.605,1.43,0.862,2.982,0.749,4.53c-0.052,0.769-0.172,1.532-0.355,2.279
	c-0.159,0.778-0.361,1.546-0.607,2.3c-0.532,1.57-1.149,3.111-1.846,4.615c-0.335,0.768-0.715,1.531-1.014,2.292
	c-0.308,0.761-0.606,1.514-0.876,2.259c-0.535,1.387-0.923,2.825-1.163,4.294c-0.097,0.651-0.123,1.311-0.081,1.968
	c0.064,0.619,0.219,1.224,0.458,1.799c0.963,2.271,3.418,3.971,8.424,4.714l0.813,1.094c0.47,0.655,1.17,1.516,1.861,2.366
	c1.382,1.705,2.762,3.354,2.762,3.354c0.355-4.65,2.546-4.422,5.003-3.622c2.46,0.813,5.187,2.148,6.673,0.258
	c0.732,1.62-0.569,3.908-2.215,5.367c-0.678,0.679-1.548,1.131-2.493,1.294c-0.876,0.086-1.676-0.497-1.861-1.355l0.929-0.776
	c-1.81-0.332-3.666,0.276-4.93,1.615c-0.754,1.237-1.107,2.678-1.009,4.124c0.06,1.46-0.049,2.921-0.325,4.355
	c-0.152,0.595-0.458,1.14-0.89,1.578c-0.543,0.474-1.225,0.762-1.943,0.826c0.497,2.269,0.902,4.547,1.236,6.833
	c0.073,0.574,0.178,1.14,0.282,1.708l0.301,1.684c0.186,1.138,0.358,2.279,0.518,3.424l0.231,1.72
	c0.071,0.574,0.142,1.149,0.246,1.715c0.18,1.141,0.362,2.28,0.544,3.417l0.51,3.434c0.086,0.571,0.155,1.15,0.256,1.719
	l0.317,1.699c0.431,2.276,0.858,4.546,1.284,6.805c0.5,2.245,1.081,4.462,1.669,6.677c0.307,1.102,0.585,2.216,0.946,3.294
	c0.367,1.076,0.745,2.147,1.137,3.212c0.392,1.063,0.802,2.117,1.225,3.165l0.65,1.561c0.22,0.517,0.483,1.014,0.732,1.517
	l3.106-2.736l2.162-1.864l0.993-0.844l0.093,0.24c0.058,0.154,0.14,0.375,0.256,0.63l0.831,1.888l1.215,2.75
	c-0.9,2.278-4.497,4.957-6.307,0.88c-1.47,2.095,0.275,3.317,2.546,3.845c0.582,0.133,1.171,0.226,1.765,0.28
	c0.584,0.047,1.17,0.063,1.755,0.046c0.815,0.015,1.627-0.11,2.401-0.371c0.763,4.424-1.639,4.989-4.158,4.617
	c-2.513-0.359-5.124-1.642-4.508-0.427l2.415,2.854l0.382-1.194c2.179,0.424,4.035,0.214,5.644,0.489
	c0.808,0.117,1.576,0.426,2.24,0.902c0.853,0.624,1.549,1.435,2.038,2.37c0.502,3.641-3.165,4.203-2.676,5.475
	c-0.486,0.324-0.446,0.853,0.953,1.836c0,0,0.23,0.442,0.628,1.066l1.435,2.317l2.102,3.373l1.581-3.192l1.615-3.147
	c2.271,0.414,3.269,1.88,4.161,2.357c0.478,0.268,1.081,0.134,1.397-0.313c0.834-1.016,1.528-2.14,2.063-3.341
	c-0.699,1.269-1.042,2.705-0.996,4.153c0.059,1.474,0.383,2.926,0.958,4.285c1.374,3.042,3.282,5.814,5.638,8.182
	c1.134,1.235,2.329,2.415,3.583,3.529c1.183,1.095,2.304,2.122,3.271,3.068l1.36,1.322c0.381,0.376,0.741,0.771,1.078,1.185
	c0.525,0.553,0.863,1.256,0.965,2.012c1.475-0.081,2.953,0.04,4.393,0.365c1.258,0.256,2.473,0.691,3.608,1.29
	c2.247,1.359,4.331,2.973,6.21,4.806c-0.354-1.912,3.355-8.058,6.59-4.595c-1.885,1.698-3.2,3.936-3.763,6.411
	c-0.119,1.561,0.396,3.103,1.431,4.277c1.111,1.309,2.09,2.723,2.927,4.221c0.435,0.891,0.724,1.846,0.857,2.829
	c0.135,0.951,0.139,1.914,0.015,2.865c0.651-2.943,3.738-1.59,6.748-0.668c1.418,0.6,2.994,0.708,4.48,0.306
	c1.21-0.508,1.969-1.853,1.962-4.694c1.49,1.478,0.901,2.73,0.058,4.168c-1.207,1.505-1.693,3.463-1.332,5.358
	c0.703-0.02,1.407,0.013,2.106,0.099c0.681,0.085,1.341,0.224,2.003,0.365c1.315,0.312,2.589,0.777,3.795,1.387
	c1.246,0.64,2.45,1.358,3.604,2.15c1.208,0.766,2.409,1.619,3.625,2.506c1.22,0.876,2.438,1.834,3.719,2.696
	c1.286,0.851,2.604,1.686,3.965,2.458c0.681,0.385,1.372,0.755,2.075,1.101c0.352,0.173,0.706,0.339,1.064,0.501
	c0.361,0.147,0.729,0.285,1.099,0.417c1.486,0.537,3.019,0.926,4.58,1.163c0.267-1.167,0.435-2.354,0.506-3.55
	c0.203-1.544,1.111-2.904,2.456-3.686l0.532,1.746l0.564,1.794l0.683,2.015c0.939,2.746,1.976,5.514,1.976,5.514
	c1.34-0.143,2.571-2.716,3.789-4.3c0.61-0.793,1.217-1.333,1.85-1.209c0.639,0.104,1.295,0.875,2.038,2.748
	c-0.283-1.723-0.646-4.305,1.059-4.587c1.317,0.867,2.686,1.652,4.1,2.35c0.351,0.173,0.702,0.342,1.057,0.504
	c0.355,0.156,0.716,0.29,1.075,0.427c0.72,0.273,1.446,0.525,2.178,0.758c1.464,0.468,2.949,0.861,4.448,1.196
	c0.748,0.183,1.509,0.275,2.268,0.389c0.76,0.105,1.521,0.2,2.286,0.28c1.528,0.163,3.064,0.281,4.603,0.367
	c1.543,0.024,3.091,0.009,4.637-0.017c1.547-0.038,3.09-0.044,4.635-0.141l4.629-0.324l2.31-0.135l1.153-0.06l1.152-0.098
	c1.536-0.123,3.071-0.218,4.61-0.269c0.769-0.025,1.539-0.039,2.309-0.04c0.771,0.004,1.539-0.047,2.312-0.045
	c1.542-0.015,3.093,0.028,4.655,0.143c0.782,0.057,1.567,0.14,2.354,0.227c0.785,0.063,1.574,0.146,2.369,0.25
	c1.629,0.214,3.243,0.514,4.839,0.9c1.645,0.424,3.301,0.834,5.002,1.376c1.777,0.57,3.525,1.23,5.235,1.979
	c-2.078-1.511-2.542-2.473-2.203-3.129c0.343-0.657,1.502-1.007,2.752-1.326c-1.827-0.552-0.97-4.681-1.856-7.189
	c0,0,0.18,0.089,0.487,0.215l1.287,0.539c1.067,0.445,2.505,1.033,3.965,1.614c1.457,0.582,2.939,1.157,4.06,1.585
	c0.562,0.222,1.025,0.374,1.35,0.487l0.513,0.174c-0.064-3.782,2.5-4.673,5.001-5.512c0.614-0.188,1.217-0.415,1.805-0.674
	c0.538-0.246,1.035-0.572,1.476-0.968c0.947-0.936,1.299-2.32,0.91-3.593l-2.581,2.25c0.004-4.728-1.953-9.245-5.407-12.475
	c-3.575-3.916-6.278-8.55-7.923-13.59c-0.28,2.525-1.335,3.156-2.736,2.899c-1.763-0.63-3.423-1.515-4.929-2.626
	c-0.826-0.538-1.697-1.01-2.598-1.409c-0.399-0.169-0.814-0.3-1.24-0.384c-0.388-0.094-0.79-0.127-1.187-0.097
	c-1.536,0.141-2.841,1.472-3.85,5.075c-1.753-1.856,0.589-3.578-0.582-5.843c-0.734,4.8-2.642,5.958-6.48,4.466l0.26-1.17
	c-0.613,0.156-1.208,0.291-1.787,0.4c-0.579,0.096-1.147,0.14-1.696,0.181c-1.048,0.071-2.1,0.076-3.151,0.009
	c-0.502-0.032-0.996-0.08-1.482-0.141l-0.723-0.1c-0.24-0.043-0.481-0.102-0.718-0.155c-0.952-0.225-1.886-0.494-2.825-0.793
	s-1.882-0.63-2.85-0.976c-0.485-0.162-0.975-0.37-1.476-0.578l-1.531-0.626c-1.044-0.42-2.136-0.844-3.298-1.253l-0.885-0.305
	l-0.914-0.353c-0.62-0.234-1.26-0.463-1.921-0.689l0.541,5.259c-2.37-0.836-2.757-2.497-3.753-3.865
	c-1.678,3.871-0.018,4.073,1.704,4.387c1.704,0.312,3.477,0.736,1.99,5.017c-0.415-2.159-1.838-3.991-3.829-4.922
	c-0.901-0.397-1.838-0.708-2.798-0.927c-0.985-0.226-2.014-0.38-3.03-0.543c-0.508-0.082-1.015-0.165-1.512-0.261
	c-0.494-0.111-0.977-0.255-1.445-0.409c-0.908-0.283-1.766-0.714-2.536-1.273c-1.757-1.458-2.65-3.714-2.363-5.979
	c-1.718-0.396-1.768,1.139-1.798,2.676c-0.033,1.535-0.05,3.072-1.852,2.663l-0.274-3.39l-1.802,3.925
	c-0.572-0.314-1.034-0.797-1.321-1.384c-0.331-0.677-0.555-1.402-0.66-2.148c-0.223-1.55-0.17-3.127,0.154-4.657
	c0.465,0.458,1.721-0.352,2.347-0.433c-0.997-2.25-3.042-2.442-4.999-2.265c-0.981,0.111-1.907,0.213-2.644,0.25
	c-0.404,0.053-0.817-0.005-1.192-0.165l1.091,1.21l0.919,1.012c0.25,0.282,0.425,0.447,0.425,0.447
	c-1.273,0.013-2.545-0.084-3.803-0.291c-0.638-0.098-1.276-0.217-1.915-0.35l-0.961-0.211c-0.317-0.085-0.629-0.184-0.945-0.281
	c-1.259-0.391-2.523-0.826-3.79-1.266c-0.629-0.232-1.279-0.418-1.897-0.684l-1.876-0.749c-1.255-0.488-2.521-0.942-3.805-1.34
	c-1.253-0.467-2.535-0.853-3.838-1.156c-2.696-0.651-5.479-0.858-8.241-0.616l-0.523,2.506c-0.916,0.064-1.838,0.025-2.747-0.113
	c-0.614-0.116-1.203-0.337-1.742-0.652c-0.798-0.526-1.427-1.27-1.811-2.145c-0.218-0.417-0.431-0.85-0.689-1.286
	c-0.281-0.465-0.598-0.908-0.953-1.321c-1.078-1.156-2.446-2.002-3.963-2.448l0.579-0.317c-2.279,1.182-5.046,0.863-6.997-0.805
	c1.715-0.53,1.739-2.251,1.891-3.923c0.145-1.678,0.422-3.306,2.45-3.804l-1.594-0.116c-0.474-0.048-0.906-0.086-1.301-0.114
	c-0.661-0.054-1.325-0.069-1.989-0.047c-0.884,0.013-1.754,0.23-2.541,0.632c-0.73,0.369-1.481,0.892-2.686,1.546
	c-1.723,0.925-3.538,1.669-5.416,2.217l0.866-1.974l0.88-1.961c-1.484,0.699-3.023,1.271-4.604,1.712
	c-1.634,0.267-3.307-0.138-4.64-1.12c2.496,0.007,3.057-1.628,3.791-3.289c0.605-2.066,2.423-3.544,4.571-3.71
	c0.294-2.168-0.529-4.339-2.185-5.77c-1.348-0.904-2.875-1.508-4.478-1.769c-0.706-0.151-1.398-0.363-2.068-0.632
	c-0.281-0.12-0.543-0.275-0.782-0.462c-0.214-0.181-0.385-0.407-0.501-0.66c-0.468-1.027-0.102-2.666,1.808-5.479
	c-1.935,0.499-3.636,1.654-4.811,3.268c-0.495,1.015-0.431,2.212,0.168,3.168c0.251,0.467,0.542,0.915,0.867,1.336
	c0.3,0.404,0.629,0.726,0.847,1.006c0.448,0.554,0.55,0.874-0.287,0.857c-0.918,1.874-2.941,2.94-5.004,2.637
	c-1.923,0.034-3.707-0.998-4.636-2.681c-0.425-0.612-0.137-1.733,0.474-3.135c0.609-1.4,1.596-3.128,2.48-4.9
	c0.913-1.688,1.601-3.486,2.052-5.352c0.176-0.811,0.208-1.647,0.092-2.47c-0.088-0.808-0.382-1.579-0.856-2.239
	c0.331,0.59,1.064,0.137,1.389,0.726c0.482-1.87-0.997-2.321-2.36-2.997c-0.68-0.267-1.261-0.736-1.667-1.342
	c-0.337-0.926-0.227-1.958,0.298-2.791c-3.361,1.054-3.818,0.109-4.382-0.559c-0.567-0.673-1.254-1.087-5.175,0.85l5.079,4.505
	c-2.801-0.734-5.652-1.267-8.529-1.594c-1.413-0.253-2.711-0.942-3.711-1.973c-0.989-1.223-1.34-2.842-0.946-4.364
	c2.174-0.193,4.363,0.037,6.449,0.68c0.71-1.398-0.064-1.941-0.845-2.512c-0.781-0.565-1.574-1.157-0.766-2.589
	c1.311-0.736,2.863-0.914,4.307-0.491c0.975,0.479,1.777,1.251,2.294,2.209c0.611,1.061,1.357,2.04,2.22,2.909
	c1.185,0.958,2.689,1.428,4.21,1.316c0.455-0.531,0.392-1.331-0.139-1.786c-0.057-0.05-0.122-0.094-0.186-0.133
	c-0.707-0.444-1.445-0.837-2.208-1.177c-1.366-0.737-1.883-1.408,2.692-2.87c-5.88,1.741-6.369,0.025-6.609-1.959
	c0.041-1.043-0.215-2.077-0.734-2.982c-0.64-0.86-1.899-1.47-4.495-1.579l4.894-1.876c-0.515-0.156-1.535-0.298-2.403-0.607
	c-0.882-0.3-1.69-0.729-1.885-1.376c0,0,1.794-0.098,3.572-0.223c1.781-0.124,3.548-0.276,3.548-0.276
	c-3.316-0.483-2.833-2.632-1.995-4.769c0.207-0.537,0.437-1.077,0.629-1.599c0.2-0.49,0.36-0.998,0.476-1.515
	c0.284-0.912-0.162-1.892-1.036-2.278c0.576,1.052,0.638,2.312,0.167,3.416c-0.539,0.736-1.331,1.248-2.222,1.437
	c-1.974,0.649-4.634,0.941-5.801,3.108c-0.986-0.508-1.809-1.286-2.368-2.245c-0.35-0.647-0.399-1.414-0.137-2.1
	c0.874-1.587,2.131-2.932,3.653-3.916c1.697-1.196,3.225-2.613,4.545-4.216c1.16-1.472,1.281-3.509,0.304-5.107
	c0.109,1.001-0.235,1.999-0.938,2.72c-0.798,1.256-2.361,1.789-3.758,1.28c0.133-0.58,0.303-1.151,0.508-1.711
	c0.223-0.635,0.508-1.247,0.848-1.827c0.72-1.27,1.694-2.377,2.861-3.252c-1.286-2.939-2.554-2.433-3.949-1.378
	c-1.401,1.046-2.932,2.679-4.841,1.656c2.83-1.831,1.993-2.442,0.181-2.991c-2.146-0.33-4.196-1.12-6.009-2.314l5.224-0.984
	c0.225-0.76,0.248-1.568,0.064-2.34c-0.121-0.517-0.453-0.962-0.916-1.224c-1.148-0.474-2.392-0.67-3.63-0.569
	c-2.709-0.016-5.321-0.02-3.789-3.877c0,0,1.938,0.547,3.87,1.052c1.933,0.509,3.859,0.974,3.859,0.974l-1.198-1.655l-0.829-1.152
	l-0.345-0.532l3.036,0.032l3.045,0.014c-2.408-1.623-3.337-2.832-3.514-4.075c-0.066-0.668,0.012-1.344,0.229-1.98
	c0.212-0.72,0.604-1.525,0.982-2.482c-2.049,0.542-4.207,0.528-6.248-0.042c-1.859-0.298-3.339-1.717-3.716-3.562
	c0.588-0.507,1.315-0.825,2.084-0.92c0.501-0.035,1.005-0.033,1.505,0.008c0.772,0,1.063-0.303,0.711-2.749
	c1.529,0.406,2.995,1.014,4.363,1.807c0.421,0.339,0.58,0.708,0.335,1.126c-0.534,0.668-1.25,1.168-2.061,1.443
	c1.741,0.172,3.372,0.96,5.096,1.108c1.377-0.878,2.049-2.531,1.67-4.12c-0.236-1.391-0.941-2.716-0.963-3.549
	c-0.154,0.74-0.604,1.387-1.245,1.785l-1.144-1.071c-0.68-0.646-1.616-1.524-2.504-2.421c-1.733-1.785-3.473-3.68-3.473-3.68
	c2.057-0.987,3.605,0.013,5.132,0.943c-0.421-0.791-0.99-1.493-1.674-2.072c-0.782-0.673-1.31-1.595-1.491-2.612
	c4.249,0.911,8.648,1.208,10.546,4.067l-0.694-1.015c-0.42-0.611-0.984-1.437-1.474-2.27c-1.021-1.663-2.045-3.394-2.045-3.394
	c1.248-0.301,2.465-0.715,3.633-1.243c1.296-0.484,2.618-0.786,3.329-0.293c1.536-1.48-0.248-3.786-1.842-6.378
	c-0.771-1.201-1.353-2.513-1.724-3.893c-0.375-1.235,0.031-2.574,1.029-3.392c-0.857-0.475-1.489-1.273-1.754-2.216
	c0.565-1.019,1.255-1.965,2.056-2.811c0.845-0.824,1.631-1.706,2.351-2.638c0.684-0.905,1.086-1.993,1.15-3.125
	c0.04-1.523-0.367-3.024-1.169-4.32c0,0,2.07-0.032,4.118-0.02c2.035,0.003,4.122,0.076,4.122,0.076
	c-0.064-2.109-2.684-2.174-5.342-2.518c-2.656-0.361-5.341-0.996-5.316-4.841c-0.167-2.817,1.519-2.601,3.589-1.732
	c2.058,0.861,4.484,2.297,5.824,1.993c-1.67-2.153-2.996-4.555-3.928-7.117c-0.085-0.305-0.148-0.614-0.191-0.928
	c-0.03-0.288-0.034-0.578-0.011-0.867c0.035-0.548,0.205-1.08,0.493-1.546c0.866-1.133,2.203-1.809,3.63-1.831
	c0.579,2.022-0.973,2.497-1.125,3.992l2.703-0.49l2.671-0.444c1.254,2.067,2.248,4.282,2.958,6.593
	c0.236,0.581,0.724,1.025,1.323,1.205c1.119,0.284,2.271,0.422,3.425,0.406c-3.279-1.801-4.635-3.426-5.021-4.992
	c-0.256-1.551,0.038-3.142,0.832-4.498c0.791-1.369,1.138-2.947,0.996-4.521c-0.664-2.378-2.277-4.379-4.459-5.533l1.941-0.075
	l1.923-0.054c-0.471,0.452,0.201,1.027-0.262,1.467c2.086,0.097,2.657-0.373,2.447-1.227c-0.184-0.554-0.461-1.071-0.819-1.531
	c-0.402-0.578-0.913-1.218-1.447-1.896c-2.15-2.697-4.639-5.997-2.032-7.762c0.526-0.245,1.089-0.403,1.665-0.467
	c0.533-0.071,1.075-0.049,1.601,0.064c0.998,0.18,1.792,0.934,2.029,1.92l-0.035-2.885l-0.002-2.939
	c0.567-0.346,1.305-0.191,1.686,0.351c0.271,0.27,0.42,0.639,0.413,1.022l0.227-0.389l1.26-2.012c0.92-1.476,1.84-2.953,1.84-2.953
	l0.287,0.338c-0.607-1.398-1.099-2.842-1.471-4.321c-0.418-1.558-0.733-3.077-0.879-4.028c2.802,0.225,0.482,1.769,2.134,2.742
	l0.101-2.679l0.088-1.864c0.031-0.506,0.065-0.833,0.065-0.833c1.706,0.738,2.912,2.304,3.191,4.141
	c0.383,1.46-0.116,3.01-1.281,3.971c3.287,1.989,4.861,2.717,5.593,2.664c0.731-0.049,0.608-0.884,0.461-1.943
	c-0.265-1.089-0.158-2.236,0.304-3.257c0.36-0.54,0.912-0.923,1.543-1.075c0.444-0.122,0.899-0.187,1.359-0.196
	c0.62-0.019,1.24,0.027,1.849,0.138l-0.22,0.569l-0.437,1.292l-0.622,1.861c1.318,0.922,2.759,1.658,4.277,2.188
	c0.896,0.271,1.835,0.366,2.768,0.279c2.058-0.437,4.194-0.355,6.211,0.239c-1.172-0.817-4.638-2.264-7.876-4.069
	c-3.224-1.819-6.186-4.005-5.805-6.736c0.772,0.136,1.563-0.099,2.136-0.632c0.71-1.037,0.998-2.303,0.811-3.546
	c3.311,4.168,4.186,1.892,6.137,0.041l4.008,5.809c0.224-0.778,0.297-1.59,0.217-2.394c-0.079-0.782-0.241-1.554-0.484-2.303
	c-0.599-1.595-1.038-3.248-1.31-4.929c1.754-0.447,3.613,0.112,4.829,1.453c1.733,1.558,3.339,3.25,4.804,5.065
	c2.34-0.748,0.508-2.203-1.441-3.941c-1.943-1.745-4.025-3.757-1.74-5.912c2.105,0.107,4.118-0.874,5.33-2.597
	c1.414-2.347,2.667-4.785,3.751-7.301c1.339,0.098,2.369,1.22,2.355,2.562c0.095,1.091-0.035,2.229,0.883,2.911l0.01-3.117
	l0.06-3.143c0.664-0.164,1.171,1.504,1.43,2.345c0.259-0.741,0.303-1.54,0.128-2.307c-0.149-0.796-0.438-1.619-0.683-2.453
	c-0.753-1.635-0.527-3.557,0.587-4.973c-0.508-1.89-0.024-2.374,0.988-2.184c0.64,0.157,1.26,0.392,1.843,0.701
	c0.352,0.171,0.722,0.36,1.103,0.558l1.184,0.648c1.388,0.898,2.963,1.467,4.606,1.66c1.347-0.012,2.359-0.908,2.81-3.307
	c1.686,1.589,0.786,4.272,1.951,6.773c2.031-3.617,3.055-5.029,3.852-6.628c0.401-0.819,0.777-1.607,1.241-2.796l1.893-4.935
	l2.734,1.71c0.671,0.413,1.35,0.906,1.848,1.243l0.833,0.578c-1.988-2.218-2.743-5.279-2.014-8.169c0.76-3.219,2-6.304,3.682-9.15
	c-1.282-1.812-2.686-3.537-4.197-5.163c0,0,1.506-1.251,3.01-2.503c0.76-0.646,1.543-1.193,2.129-1.646l0.983-0.736
	c1.001,1.027,0.641,3.526,0.012,6.587c0.36-0.639,0.705-1.267,0.963-1.844c2.757,2.244,2.018,6.455,1.023,10.571
	c-0.966-1.269-1.962-2.626-2.957-3.978c-1.071,4.411-1.181,9-0.325,13.457c0.264-0.906,0.823-1.697,1.587-2.249
	c-0.232,0.973-0.216,1.987,0.05,2.951c0.326,0.703,0.645-0.992,1.334-2.884c0,0,0.639,1.895,1.28,3.788l1.243,3.793l-0.149-3.129
	c0,0,2.061,0.953,4.048,1.91c0.993,0.452,1.983,1.03,2.716,1.415l1.215,0.664c1.119-2.08,2.232-4.412,3.437-6.776
	c1.208-2.357,2.54-4.649,3.988-6.866c0.733-1.104,1.522-2.171,2.362-3.196c0.824-0.978,1.723-1.889,2.692-2.724
	c0.953-0.828,1.979-1.565,3.066-2.202c1.084-0.655,2.254-1.155,3.478-1.487c-1.113,2.387-1.61,5.015-1.446,7.645
	c0.063,2.494,0.37,5.135,0.179,8.541c-0.523-1.859-1.239-2.556-2.066-2.641c-1.03,0.075-2.004,0.501-2.755,1.208
	c-0.989,0.745-2.028,1.624-3.09,2.302c-0.92,0.737-2.12,1.024-3.276,0.787c2.359,0.667,1.918,3.947,1.394,5.091l1.172-1.075
	l1.22-1.103l1.424-1.189c1.95-1.62,4.005-3.247,4.005-3.247c-0.155,2.792,0.24,3.841,0.907,4.483
	c0.934,0.621,1.794,1.346,2.563,2.163c-0.497-5.558,1.058-7.305,3.263-8.061c0.563-0.187,1.141-0.329,1.729-0.424
	c0.595-0.079,1.199-0.139,1.796-0.226c1.181-0.101,2.31-0.519,3.273-1.209c-0.02,1.719-0.464,3.405-1.293,4.912
	c-0.819,1.349-2.535,1.847-3.95,1.148c0.897,2.189,1.728,2.511,2.586,1.883c1.089-1.112,1.982-2.401,2.638-3.812
	c0.701-1.475,1.64-2.826,2.779-3.998c0.928-0.734,1.861-0.593,2.684,1.323c-0.999-0.069-1.454-0.713-2.11,1.095
	c1.301-1.281,3.325-1.462,4.832-0.434c0.693,0.413,1.225,1.049,1.504,1.805c0.271,0.736,0.171,1.56-0.27,2.209l-0.963-0.124
	c1.796,0.745,3.674,1.277,5.594,1.585c0.535,0.077,1.07,0.185,1.613,0.274c0.543,0.089,1.097,0.16,1.651,0.214
	c1.115,0.111,2.237,0.142,3.356,0.09c0.559-0.031,1.112-0.078,1.652-0.117c0.538-0.048,1.072-0.123,1.601-0.225
	c1.036-0.195,2.043-0.523,2.996-0.974c0.944-0.447,1.81-1.047,2.56-1.771c0.791-0.766,1.434-1.671,1.898-2.67
	c-0.163,0.588-1.288,3.185-2.473,5.849c-1.186,2.658-2.44,5.418-2.916,6.259l0.89-1.144c0.569-0.724,1.375-1.728,2.369-2.944
	c1.983-2.423,4.707-5.627,7.567-8.784c1.423-1.568,2.895-3.172,4.266-4.583c1.376-1.426,2.689-2.749,3.825-3.875
	c2.276-2.254,3.849-3.732,3.849-3.732c-2.429,5.198-4.539,10.538-6.317,15.993c-2.32,5.929-5.046,11.22-8.287,12.333
	c0.423,0.899,1.081,1.667,1.906,2.223c1.34,0.578,2.858,0.585,4.202,0.014c0.067-2.196,0.489-4.366,1.246-6.43
	c0.839-2.743,1.945-5.352,2.786-5.358c-0.127,2.548,0.008,5.105,0.406,7.624c0.141,0.639,0.325,1.253,0.534,2.26
	c0.288,1.434,0.483,2.884,0.581,4.344c0.614-2.453,1.779-4.734,3.407-6.671c2.008-2.692,4.426-4.862,5.512-4.052
	c-1.199,1.413-5.383,10.317-6.954,11.668c0.651-0.472,3.028-2.187,5.509-3.858c1.458-0.99,2.896-1.89,4.006-2.592l1.269-0.787
	c-1.404,1.418-2.494,3.111-3.204,4.976c-1.061,2.333-1.869,4.774-2.412,7.279c0.356-1.203,1.445-0.488,2.689,0.488
	c1.222,1.014,2.541,2.357,3.553,2.281l-0.268-1.906l-0.291-1.921c1.164,1.231,3.016,1.511,4.493,0.679
	c0.973-0.39,1.912-0.862,2.806-1.41c0.966-0.562,1.969-1.211,2.986-1.861c1.894-1.318,3.933-2.415,6.077-3.27
	c1.701-0.828,3.733-0.566,5.169,0.669c-2.4,1.86-4.533,4.04-6.341,6.477c-2.321,3.025-4.143,6.299-3.293,7.994
	c1.305-0.982,3.51-2.67,6.256-4.607c2.743-1.934,6.056-4.139,9.458-6.054c3.285-1.908,6.735-3.514,10.309-4.798
	c1.519-0.542,3.085-0.94,4.681-1.19c1.269-0.204,2.563-0.192,3.827,0.034l-0.756,1.802l-0.768,1.793l3.506,0.564
	c0.893,0.138,1.747,0.323,2.398,0.455l1.086,0.226c-4.674,1.876-12.431,4.714-19.727,7.598c-3.634,1.409-7.307,2.964-10.5,4.285
	c-3.21,1.336-5.98,2.48-8.073,3.255c0.025,3.855-2.277,3.712,0.713,5.934c-0.457,1.352-1.664,2.31-3.085,2.445
	c-0.939,0.114-1.893-0.051-2.738-0.476l2.332,3.566c0.599,0.862,1.109,1.807,1.512,2.487l0.662,1.14
	c1.815-2.117,4.54-3.23,7.318-2.99c2.446,0.436,4.955-0.294,6.786-1.973l-1.906-0.305l-1.934-0.295l-2.26-0.248
	c-3.067-0.324-6.013-0.555-6.013-0.555c3.148-3.345,7.149-5.765,11.574-7.001c1.119-0.322,2.263-0.549,3.419-0.673
	c1.051-0.129,2.113-0.112,3.158,0.049c1.813,0.197,3.451,1.176,4.482,2.68c-1.478,2.28-3.54,4.124-5.97,5.34
	c-2.231,1.301-4.382,2.736-6.438,4.298c0.703-0.279,1.465-0.37,2.213-0.264c0.42,0.045,0.836,0.121,1.245,0.231
	c0.398,0.114,0.785,0.262,1.157,0.444c1.452,0.702,2.488,1.749,1.976,2.545l-2.381,0.234l-2.353,0.263
	c0.028,2.219,2.794,1.708,5.277,1.688c1.053-0.137,2.119,0.124,2.99,0.728c0.633,0.606,0.776,1.698-0.012,3.588
	c0.015,0.698-0.171,1.387-0.538,1.984c-0.399,0.872-0.948,1.87-1.433,2.765c-0.949,1.778-1.505,3.046,0.37,1.911
	c9.682-9.75,20.773-17.989,32.902-24.443c-0.054,0.43-0.358,3.588-1.022,7.027c-0.167,0.863-0.347,1.736-0.566,2.606
	c-0.234,0.878-0.486,1.739-0.755,2.549c-0.426,1.401-1.029,2.742-1.793,3.989c-2.665,2.711-6.121,4.501-9.872,5.116
	c-3.5,0.596-6.75,2.195-9.358,4.604c1.752-0.8,3.679-1.153,5.601-1.026c-0.662,2.246-5.723,2.658-3.183,5.078
	c3.399-1.623,4.09,0.027,4.373,1.019c0.274,0.984,0.168,1.395,1.932-2.701c1.264,0.506,2.004,1.826,1.78,3.168
	c-0.254,1.439-0.009,2.923,0.692,4.207c3.016-1.912,6.524-2.901,10.094-2.845c1.97-0.097,3.944,0.016,5.889,0.339
	c0.817,0.135,1.622,0.34,2.404,0.614c0.606,0.215,1.178,0.519,1.695,0.902c-1.758,0.724-3.352,1.789-4.693,3.138
	c0.519,1.668,0.892,3.379,1.11,5.114c0.158,1.614,0.16,3.146,0.193,4.635c0.018,1.496,0.086,2.944,0.213,4.449
	c0.095,1.603,0.366,3.19,0.807,4.736c-0.865,0.872-1.664,1.806-2.393,2.793c-0.927,1.163-2.393,1.758-3.869,1.567
	c1.518,0.568,4.186,0.792,4.86,2.792c-2.675,2.719-3.2,1.633-3.902,0.522c-0.706-1.129-1.583-2.281-5.019,0.121
	c2.033-0.295,4.088,0.361,5.574,1.779c0.417,0.328,0.825,0.681,1.23,1.044c0.41,0.363,0.811,0.739,1.183,1.117
	c0.73,0.749,1.51,1.449,2.336,2.092c1.174-0.225,2.164-1.005,2.659-2.094c0.196-0.936-0.075-1.909-0.727-2.61
	c-1.583-1.803-3.441-3.344-5.506-4.566c5.771-1.52,11.886-1.026,17.336,1.399c1.086,0.474,2.132,1.04,3.124,1.689
	c1.942,1.277,3.673,2.852,5.125,4.665c0.876,1.486,0.975,2.478,0.612,3.125c-0.432,0.634-1.131,1.034-1.896,1.09
	c-1.601,0.28-3.417-0.058-2.69,0.379c-0.081,2.432,0.89,4.782,2.668,6.446c1.584,1.424,3.356,2.621,5.268,3.558
	c1.702,0.768,3.18,1.958,4.292,3.461c0.443,0.763,0.611,1.656,0.477,2.528c-0.193,1.228-0.64,2.401-1.311,3.446
	c-2.482,1.768-5.565,2.478-8.57,1.972c-2.445-0.493-4.947-0.628-7.432-0.402c-0.95-2.009-0.66-4.384,0.746-6.106
	c1.036-1.773,2.335-3.419,2.063-5.109l-1.208,2.211l-1.211,2.174c-2.111-1.439-3.878-4.492-2.341-6.45
	c-1.3,1.188-2.05,2.861-2.072,4.621c-0.113,1.127-0.159,2.26-0.142,3.392c-0.044,1.222-0.048,2.52-0.045,3.861
	c-0.007,1.341,0.03,2.722-0.035,4.106c-0.095,1.386-0.222,2.774-0.421,4.124c-0.099,0.673-0.215,1.339-0.354,1.989
	c-0.126,0.643-0.302,1.277-0.524,1.894c-0.409,1.188-0.961,2.317-1.648,3.369c1.89,1.592,3.794,4.408,6.239,3.349l-0.662-2.809
	c1.912-0.83,4.145-0.164,5.289,1.579c1.259,1.301,2.205,2.505,3.424,0.758c0.39,0.517,0.809,1.045,1.238,1.588
	c0.417,0.543,0.823,1.096,1.231,1.664c0.824,1.119,1.544,2.313,2.15,3.565c0.586,1.193,0.917,2.493,0.968,3.82
	c-0.038,1.402-0.489,2.762-1.3,3.908l-3.416-0.005l-3.037-0.024c1.891-0.174,4.047-3.08,2.35-4.781
	c1.322,1.338-1.282,3.138-3.14,4.961c-0.894,0.694-1.496,1.697-1.686,2.814c-0.041,0.954,0.674,1.941,2.718,2.985l2.689-1.461
	l0.991-0.549l0.836-0.491l0.818-0.483c0.333,0.57,0.748,1.172,1.144,1.79l1.267,1.922c0.899,1.326,1.719,2.703,2.457,4.126
	c0.346,0.685,0.645,1.392,0.895,2.117c0.242,0.669,0.394,1.367,0.45,2.077c0.132,1.344-0.233,2.691-1.028,3.783
	c3.529-0.331,3.425-0.694,3.495-1.164c0.067-0.486,0.331-1.054,4.58-2.052c-5.075,0.523-4.266-2.798-3.592-5.872
	c0.458-1.257,0.517-2.626,0.166-3.917c-0.417-0.741-1.337-1.048-3.18-0.681c2.404-0.415,4.503-1.863,5.747-3.961
	c0.542-0.964,1.188-1.865,1.925-2.687c0.223-0.236,0.47-0.473,0.75-0.717c0.268-0.243,0.568-0.491,0.905-0.742
	c0.801-0.587,1.648-1.107,2.531-1.56c-2.234-0.097-4.436,1.32-2.854-3.075c-0.658-0.327-1.278-0.723-1.848-1.184
	c0.057-0.102,0.123-0.196,0.198-0.286c-0.097,0.081-0.201,0.139-0.288,0.221c-0.314-0.226-0.384-0.251-0.098,0.083
	c-1.004,0.959-2.255,1.618-3.613,1.909c-1.121-0.639-2.052-1.562-2.705-2.676c-0.315-0.528-0.587-1.082-0.812-1.653
	c-0.114-0.285-0.219-0.574-0.319-0.865l-0.309-0.875c-0.429-2.101-1.295-4.089-2.54-5.835c1.204-2.476,2.498,1.174,4.949-0.103
	l-1.883-1.813c-0.97-0.899-1.957-1.778-1.957-1.778c2.289-0.419,4.458-1.335,6.354-2.681c1.809-0.904,3.357-1.044,4.772,2.146
	l0.27-5.699c0.689-0.831,1.257-1.756,1.683-2.75c0.418-0.945,0.709-1.941,0.861-2.961c0.147-0.944,0.129-1.906-0.052-2.844
	c-0.16-0.879-0.547-1.702-1.122-2.385C458.09,259.461,456.572,257.854,455.462,256.886z M121.249,376.541l0.462-1.801
	C124.504,376.134,122.938,376.295,121.249,376.541z M181.961,174.13c-0.122,0.941-0.562,1.451-1.879,0.529
	c-1.613-2.655-1.746-3.61-1.188-3.871c0.571-0.248,1.855,0.22,3.086,0.34C182.029,172.129,182.024,173.131,181.961,174.13z
	 M248.904,126.722c1.224-0.657,2.737-0.39,3.662,0.643C251.938,129.176,250.617,128.523,248.904,126.722L248.904,126.722z
	 M347.588,122.658c0.488-1.095,0.208-1.904,1.213-1.485C348.355,121.634,347.951,122.131,347.588,122.658z M453.06,267.501
	c-0.084-0.056-0.173-0.104-0.267-0.14C454.738,264.171,453.96,265.309,453.06,267.501z"/>
</svg>
