<?xml version="1.0" encoding="utf-8"?>
<!-- Generator: Adobe Illustrator 17.0.0, SVG Export Plug-In . SVG Version: 6.00 Build 0)  -->
<!DOCTYPE svg PUBLIC "-//W3C//DTD SVG 1.1//EN" "http://www.w3.org/Graphics/SVG/1.1/DTD/svg11.dtd">
<svg version="1.1" id="Capa_1" xmlns="http://www.w3.org/2000/svg" xmlns:xlink="http://www.w3.org/1999/xlink" x="0px" y="0px"
	 width="200px" height="200px" viewBox="150 150 200 200" enable-background="new 150 150 200 200" xml:space="preserve">
<path d="M164.89,239.102v108.521h61.319v-57.654h48.04v57.654h61.319V239.102l-85.34-59.056L164.89,239.102z"/>
<path d="M341.784,214.519c-29.672-20.631-59.632-41.264-89.304-61.882c-1.126-0.85-3.113-0.85-4.239,0
	c-29.672,20.631-59.632,41.264-89.304,61.882c-4.526,3.113-0.287,10.454,4.239,7.352c14.98-10.178,29.672-20.631,44.652-30.797
	c9.891-6.778,19.781-13.842,29.96-20.631c3.389-2.263,7.065-4.526,10.178-7.065c0.563-0.563,1.7-1.126,2.539-1.413
	c0.85,0.563,1.976,1.126,2.539,1.413c3.113,2.539,6.778,4.802,10.178,7.065c9.891,6.778,19.781,13.842,29.96,20.631
	c14.98,10.178,29.672,20.631,44.652,30.797c4.239,3.102,8.478-4.239,3.952-7.352H341.784z"/>
</svg>
