<?xml version="1.0" encoding="utf-8"?>
<!-- Generator: Adobe Illustrator 17.0.0, SVG Export Plug-In . SVG Version: 6.00 Build 0)  -->
<!DOCTYPE svg PUBLIC "-//W3C//DTD SVG 1.1//EN" "http://www.w3.org/Graphics/SVG/1.1/DTD/svg11.dtd">
<svg version="1.1" id="Capa_1" xmlns="http://www.w3.org/2000/svg" xmlns:xlink="http://www.w3.org/1999/xlink" x="0px" y="0px"
	 width="200px" height="200px" viewBox="0 0 200 200" enable-background="new 0 0 200 200" xml:space="preserve">
<title>1-zen circle</title>
<path fill="#A09E6D" d="M115.05,194.506c-0.904-0.036-0.189,2.253-0.25,2.7C116.202,196.398,114.897,193.906,115.05,194.506z"/>
<path fill="#A09E6D" d="M127.47,185.735l0.081,1.005l0.576-1.473l0.55-1.465l-0.597,0.965L127.47,185.735z"/>
<path fill="#A09E6D" d="M136.03,180.84c-0.239,0.25-0.477,0.522-0.723,0.788c-0.123,0.133-0.247,0.264-0.374,0.39
	c-0.129,0.121-0.262,0.233-0.397,0.338c-0.488,0.443-1.143,0.654-1.797,0.579l-0.702-0.715l0.143,1.713l0.125,1.72
	c0.647-0.436,1.262-0.918,1.841-1.442c0.611-0.542,1.227-1.085,1.806-1.636c0.871-1.032,2.106-1.688,3.448-1.833
	C137.931,179.213,136.985,179.837,136.03,180.84z"/>
<path fill="#A09E6D" d="M148.234,185.326c0.163,0.048,0.323,0.108,0.477,0.179c0.402-0.271,0.833-0.496,1.285-0.671
	C148.772,183.732,150.683,182.834,148.234,185.326z"/>
<path fill="#A09E6D" d="M148.71,185.505C147.483,186.378,150.226,186.138,148.71,185.505z"/>
<path fill="#A09E6D" d="M154.009,181.038l-0.413,1.131l-0.425,1.137c0.855,0.549,2.455-0.279,2.291,0.655
	C156.736,182.161,155.822,181.659,154.009,181.038z"/>
<path fill="#A09E6D" d="M153.795,177.575l-0.22,0.535l-0.234,0.522C153.707,178.855,154.014,178.823,153.795,177.575z"/>
<path fill="#A09E6D" d="M152.803,179.545c-0.542-1.084-0.22,0.096-0.493,1.305l0.522-1.112l0.509-1.106
	C152.733,178.255,151.966,177.183,152.803,179.545z"/>
<path fill="#A09E6D" d="M149.151,180.729c-0.224-0.113-0.373-0.333-0.397-0.583c-0.015-0.422,0.064-0.841,0.231-1.229
	c-0.294,0.266-0.563,0.556-0.806,0.869c-0.182,0.24-0.326,0.506-0.426,0.79c-0.172,0.39-0.116,0.843,0.145,1.18
	c0.321,0.301,0.777,0.412,1.2,0.293c0.714-0.16,1.366-0.522,1.878-1.044c-0.344-0.035-0.692-0.043-1.006-0.071
	C149.687,180.919,149.409,180.85,149.151,180.729z"/>
<path fill="#A09E6D" d="M138.043,176.705l-0.837-0.227c-0.206-0.054-0.42-0.123-0.577-0.171l-0.262-0.081l-0.192,0.849l-0.2,0.852
	c0.103-0.423,0.78-0.443,1.359-0.499C137.909,177.365,138.371,177.245,138.043,176.705z"/>
<path fill="#A09E6D" d="M162.028,173.349c-0.038,0.159-0.086,0.376-0.143,0.582l-0.227,0.835c0.964-0.005,2.358-0.556,3.289,0.33
	c-0.487-0.726-2.023-1.273-2.857-2.013L162.028,173.349z"/>
<path fill="#A09E6D" d="M162.66,170.561c-1.495,1.129-1.285,1.887-0.57,2.522l0.292-1.265L162.66,170.561z"/>
<path fill="#A09E6D" d="M151.293,174.425c-0.072,0.428-0.194,0.97-0.314,1.524c-0.242,1.105-0.51,2.225-0.51,2.225
	s0.398-1.221,0.763-2.423c0.189-0.594,0.347-1.219,0.469-1.676l0.198-0.764l-0.479,0.413L151.293,174.425z"/>
<path fill="#A09E6D" d="M170.968,167.913l0.093,1.417l0.093,0.358l0.194,0.782l0.274,1.144c0,0-0.142-0.929-0.299-1.847
	C171.153,168.834,170.968,167.913,170.968,167.913z"/>
<path fill="#A09E6D" d="M174.506,164.943c0.305,0.711,0.977,1.195,1.747,1.26c0.675,0.158,1.291,0.262,1.36,0.979
	c0.612-1.608,0.691-3.37,0.225-5.026C177.64,163.572,176.62,164.502,174.506,164.943z"/>
<path fill="#A09E6D" d="M177.523,159.469c0.012,0.904,0.117,1.804,0.316,2.686C177.943,161.248,177.835,160.328,177.523,159.469z"/>
<path fill="#A09E6D" d="M166.151,167.846l-0.61,0.561c0.851,0.6,1.921,0.801,2.932,0.551l-1.164-0.552L166.151,167.846z"/>
<path fill="#A09E6D" d="M166.077,167.813l0.074,0.033c0.597-0.529,1.039-0.908,1.277-1.105
	C167.215,166.916,166.794,167.249,166.077,167.813z"/>
<path fill="#A09E6D" d="M165.388,168.548c0.058-0.05,0.101-0.087,0.154-0.141C165.315,168.292,165.228,168.271,165.388,168.548z"/>
<path fill="#A09E6D" d="M154.779,167.678c0.244,0.747,0.681,1.416,1.267,1.939c0.656,0.707,0.98,1.659,0.893,2.619
	c0.138-0.97,0.179-1.95,0.123-2.928C156.904,168.41,156.33,167.741,154.779,167.678z"/>
<path fill="#A09E6D" d="M162.288,168.5l0.191-0.965l0.073-0.448l-0.299,0.176l-0.678,0.363l-0.984,0.522
	c0.464,0.445,1.394,0.866,1.405,1.767L162.288,168.5z"/>
<polygon fill="#A09E6D" points="162.757,165.788 162.551,167.088 163.264,166.667 "/>
<path fill="#A09E6D" d="M172.683,159.003c-0.49,0.406-0.94,0.859-1.342,1.353c0.48,0.617,1.181,1.923,1.991,0.798
	c-0.098-0.606-0.032-1.227,0.19-1.8c0.211-0.534,0.463-1.051,0.755-1.545c-0.285,0.183-0.56,0.374-0.825,0.575
	C173.188,158.585,172.938,158.797,172.683,159.003z"/>
<path fill="#A09E6D" d="M169.724,164.349c0.002-0.087,0.041-0.168,0.04-0.252C169.521,164.056,169.403,164.093,169.724,164.349z"/>
<path fill="#A09E6D" d="M180.282,148.045c0.113,0.083,0.227,0.161,0.341,0.249l0.137-0.188
	C180.613,148.096,180.436,148.059,180.282,148.045z"/>
<path fill="#A09E6D" d="M170.856,160.231c-0.961,0.428-0.859,1.24-0.642,2.146c0.272-0.726,0.652-1.407,1.127-2.02
	C171.122,160.075,170.956,159.92,170.856,160.231z"/>
<path fill="#A09E6D" d="M178.044,156.606c0.449-0.098,0.735-0.267,0.526-0.521c-0.35,0.066-0.697,0.153-1.037,0.261
	c-0.343,0.103-0.689,0.217-1.026,0.343C177.021,156.722,177.537,156.694,178.044,156.606z"/>
<path fill="#A09E6D" d="M170.486,164.303c0,0.06-0.005,0.12-0.016,0.18C171.069,164.589,170.855,164.452,170.486,164.303z"/>
<path fill="#A09E6D" d="M170.486,164.303c0.016-0.653-0.076-1.303-0.271-1.926c-0.241,0.546-0.393,1.126-0.45,1.72
	C170.012,164.138,170.254,164.207,170.486,164.303z"/>
<path fill="#A09E6D" d="M179.172,147.021c-0.399-0.771-0.607-1.627-0.608-2.495c-1.03,0.278-2.044,0.612-3.038,0.999
	c-1.142,0.304-2.193,0.258-2.631-0.986c0.035-0.509,0.191-1.003,0.457-1.439c0.176-0.254,0.456-0.416,0.763-0.444
	c0.748,0.035,1.497-0.026,2.23-0.181c-1.498-0.179-1.983-1.425-2.612-2.755c-0.303-0.711-0.706-1.375-1.197-1.972
	c-0.589-0.682-1.352-1.192-2.207-1.476l0.056,0.406c0.035,0.245,0.079,0.571,0.106,0.892l0.122,1.299
	c-0.584-0.271-1.118-1.435-1.921-1.185c0.933,0.538,1.562,1.48,1.703,2.547c0.043,0.467-0.109,0.931-0.422,1.281
	c-0.447,0.413-1.023,0.658-1.631,0.692c0.253,1.212,2.096,2.56,4.446,3.662c2.371,1.108,4.898,1.843,7.493,2.18
	C179.838,147.794,179.458,147.443,179.172,147.021z"/>
<path fill="#A09E6D" d="M180.624,148.295l-1.285,1.821c-0.322,0.453-0.643,0.907-0.885,1.246c-0.12,0.17-0.232,0.304-0.305,0.401
	l-0.117,0.151l-0.111-0.438l-0.266,0.899c0.497-0.328,1.057-0.551,1.644-0.654c0.671-0.15,1.511-0.248,2.626-0.384
	C181.993,150.175,181.511,149.048,180.624,148.295z"/>
<path fill="#A09E6D" d="M176.021,154.516l-0.297,0.57l-0.344,0.629c-0.358-0.469-0.658-0.979-0.896-1.519
	c-0.24-0.508-0.442-1-0.686-1.442c-0.493-1.005-1.468-1.687-2.581-1.804c-0.137,0.23-0.247,0.476-0.327,0.733
	c-0.066,0.193-0.103,0.396-0.107,0.6c0.006,0.349,0.1,0.692,0.273,0.995c0.455,0.623,0.722,1.364,0.768,2.135
	c0.985-1.835,1.084-1.398,1.3-0.697c0.217,0.699,0.531,1.687,2.008,0.862c-0.153,0.788-0.442,1.543-0.853,2.232
	c0.705-0.445,1.452-0.82,2.23-1.121c-0.07-0.002-0.12-0.004-0.183-0.009l-0.009,0.019l-0.023-0.022
	c-0.36-0.031-0.549-0.093-0.282-0.158c-0.014-0.028,0.009-0.075,0.013-0.101c-0.234-0.209-0.445-0.441-0.632-0.693
	c1.147-0.7,0.632,0.209,0.632,0.693c0.093,0.085,0.165,0.178,0.27,0.259l0.032,0.003l0.231-0.665c0.14-0.398,0.294-0.948,0.46-1.486
	l0.638-2.152c-0.435,0.329-0.804,0.738-1.086,1.205C176.392,153.85,176.213,154.16,176.021,154.516z"/>
<path fill="#A09E6D" d="M152.897,162.356c0.181,0.074,0.341,0.193,0.464,0.345C153.342,162.314,153.272,162.1,152.897,162.356z"/>
<path fill="#A09E6D" d="M160.036,165.145c0.153,0.103,0.308,0.207,0.468,0.316C160.499,165.367,160.324,165.257,160.036,165.145z"/>
<path fill="#A09E6D" d="M154.701,164.159c-1.065-0.024-0.773-0.883-1.34-1.458c-0.028,0.531,0.02,1.063,0.144,1.579
	c0.178,0.502,0.633,0.907,1.664,0.768l-0.019-0.436c1.096-0.164,2.214-0.124,3.296,0.118c0.541,0.093,1.073,0.232,1.591,0.415
	c-1.563-1.093-3.244-2.008-5.009-2.73C155.054,162.851,155.539,163.733,154.701,164.159z"/>
<path fill="#A09E6D" d="M166.028,155.997c0,0-0.672-0.017-1.344-0.034c-0.666-0.025-1.332-0.05-1.332-0.05l1.022,0.762
	c-0.294,0.179-0.53,0.439-0.681,0.748c-0.073,0.219-0.044,0.459,0.08,0.653c0.231,0.418,0.737,0.808,1.026,1.221l0.208-0.51
	c0.125-0.305,0.292-0.709,0.435-1.131L166.028,155.997z"/>
<path fill="#A09E6D" d="M181.865,146.436l0.086,0.961l0.056,0.665c0.016,0.183,0.022,0.302,0.022,0.302l1.992,1.712
	c0,0-0.506-0.915-1.057-1.832C182.42,147.331,181.865,146.436,181.865,146.436z"/>
<path fill="#A09E6D" d="M185.591,144.402l-0.332-0.867l-1.262,0.559l1.916,1.179l-0.096-0.271L185.591,144.402z"/>
<path fill="#A09E6D" d="M53.869,48.974l-0.024,0.151c0.124-0.304,0.179-0.632,0.162-0.96l-0.083,0.481L53.869,48.974z"/>
<path fill="#A09E6D" d="M58.377,44.927l-0.541-0.981C57.989,44.595,58.173,45.022,58.377,44.927z"/>
<path fill="#A09E6D" d="M170.22,36.716c0.552-2.521,1.698-6.094-0.013-4.213l-1.473,2.042
	C169.61,34.918,170.19,35.765,170.22,36.716z"/>
<path fill="#A09E6D" d="M100.577,19.01l0.357,0.749c0.35-0.829,0.679-1.61,0.973-2.306C101.499,17.941,101.045,18.435,100.577,19.01
	z"/>
<path fill="#A09E6D" d="M99.49,29.213l-0.746-0.801l-0.763-0.803C98.381,28.232,98.892,28.776,99.49,29.213z"/>
<path fill="#A09E6D" d="M40.153,74.306l0.309,0.278c0.109-0.211,0.132-0.456,0.064-0.684c-0.092-0.185-0.246-0.332-0.434-0.418
	c-0.414-0.228-1.033-0.384-1.57-0.689l0.958,0.899L40.153,74.306z"/>
<path fill="#A09E6D" d="M193.581,97.757c0.737-0.99,1.201-2.156,1.345-3.382C193.587,96.086,191.512,97.396,193.581,97.757z"/>
<path fill="#A09E6D" d="M39.326,26.327c-0.229,0.582-0.13,1.241,0.259,1.73C39.818,27.32,39.809,26.716,39.326,26.327z"/>
<path fill="#A09E6D" d="M194.926,94.376c0.496-0.545,0.806-1.234,0.884-1.967c-0.016-0.809-0.489-1.54-1.222-1.885
	c-0.183,0.244-0.354,0.497-0.511,0.759c0.259,0.46,0.475,0.943,0.644,1.443C194.904,93.255,194.974,93.817,194.926,94.376z"/>
<path fill="#A09E6D" d="M70.342,162.083c0.044,0.118,0.078,0.24,0.102,0.364C70.604,162.149,70.511,162.094,70.342,162.083z"/>
<path fill="#A09E6D" d="M101.545,192.903c-0.568,0.162-1.154,0.251-1.745,0.264C100.117,193.324,100.65,193.287,101.545,192.903z"/>
<path fill="#A09E6D" d="M191.926,126.864C191.802,127.876,192.15,127.094,191.926,126.864z"/>
<path fill="#A09E6D" d="M180.201,127.67c0.395,0.159,0.747,0.407,1.029,0.726C180.968,128.056,180.609,127.803,180.201,127.67z"/>
<path fill="#A09E6D" d="M178.035,83.805c-0.005-0.024,0.001-0.045-0.005-0.073C177.605,84.074,177.689,84.013,178.035,83.805z"/>
<path fill="#A09E6D" d="M190.413,127.989c0.413-0.277,0.777-0.619,1.079-1.013C191.086,127.26,190.722,127.601,190.413,127.989z"/>
<path fill="#A09E6D" d="M191.591,128.131c-0.21,0.299-0.349,0.541-0.49,0.769C191.453,129.142,191.736,129.11,191.591,128.131z"/>
<path fill="#A09E6D" d="M192.152,125.474c-0.113,0.541-0.338,1.053-0.66,1.502c0.213-0.143,0.365-0.186,0.433-0.112
	C191.965,126.568,192.022,126.152,192.152,125.474z"/>
<path fill="#A09E6D" d="M27.201,122.343c-0.052,0.079-0.11,0.155-0.172,0.226C28.23,123.002,27.977,122.727,27.201,122.343z"/>
<path fill="#A09E6D" d="M136.743,41.355c0.042-0.002,0.093-0.047,0.132-0.05l-0.039-0.137L136.743,41.355z"/>
<path fill="#A09E6D" d="M139.461,35.7l0.471-1.014c0,0-1.638,1.684-3.224,3.4c-1.591,1.713-3.128,3.458-3.128,3.458
	c1.257-1.033,1.993-1.375,2.451-1.342c0.464,0.027,0.634,0.456,0.805,0.966c0,0,0.794-1.609,1.568-3.232L139.461,35.7z"/>
<path fill="#A09E6D" d="M194.4,110.609c-0.464-0.603-0.783-0.863,0.148-0.16l-0.169-0.742c-0.105-0.445-0.231-1.034-0.385-1.621
	c-0.327-1.167-0.655-2.333-0.655-2.333l0.637-0.006c-0.019-2.374-0.444-4.727-1.256-6.957c-0.34-1.168-0.445-2.391-0.309-3.6
	c0.219-1.421,0.792-2.765,1.667-3.907c-0.438-0.738-0.806-1.516-1.099-2.323c-0.361-1.014-0.462-2.102-0.296-3.166l2.112-0.834
	c-0.361-1.259-0.416-2.585-0.161-3.869c0.09-1.398,0.024-2.642-1.219-2.793c1.127-0.643,1.886-1.78,2.048-3.068
	c0.062-0.6,0.031-1.206-0.092-1.796c-0.149-0.632-0.356-1.249-0.62-1.843c-0.261-0.616-0.564-1.229-0.87-1.83
	c-0.309-0.6-0.607-1.193-0.921-1.75c-0.589-0.945-0.978-2-1.142-3.102l-2.745,0.895c-0.083-0.287-0.18-0.569-0.292-0.846
	c-0.123-0.271-0.258-0.538-0.407-0.801c-0.307-0.538-0.653-1.054-1.034-1.543c-0.391-0.507-0.827-1.013-1.301-1.527
	c-0.487-0.509-1.037-1.018-1.609-1.554l-2.229,1.246c-1.482-0.652-1.696-2.256-1.955-4.107c-0.115-0.931-0.207-1.937-0.406-2.923
	c-0.2-0.971-0.586-1.894-1.136-2.718c0.97-0.281,1.279,0.719,1.132,1.622c0.599-1.322,0.48-2.858-0.315-4.072
	c-0.849-1.012-1.909-1.827-3.104-2.388c-1.173-0.56-2.293-1.225-3.345-1.988c-0.961-0.779-1.449-2.002-1.289-3.228
	c-0.939-0.027-1.678-0.81-1.651-1.749c0.002-0.085,0.011-0.17,0.026-0.253c0.074,0.07,0.17,0.111,0.272,0.115
	c-0.069-0.13-0.155-0.25-0.254-0.358c0.015-0.322,0.045-0.665,0.057-1.003c0.013-0.336,0.008-0.673-0.016-1.009
	c-0.157,0.599-0.224,1.218-0.199,1.837c-0.358-0.361-0.763-0.674-1.203-0.929c-0.549-0.335-1.131-0.613-1.738-0.83l1.654-2.249
	c-0.081-0.058-0.164-0.111-0.25-0.16c-0.097-1.599-1.591,0.183-2.663,2.066c-0.755-0.147-1.531-0.141-2.283,0.017
	c1.247-1.879,0.413-2.185-0.408-2.526c-0.419-0.11-0.775-0.387-0.984-0.767c-0.171-0.405-0.102-1.031,0.456-2.118
	c-1.087,0.565-2.5-0.132-4.086-0.55c-1.476-0.462-3.081-0.24-4.378,0.604c-0.155-0.299-0.311-0.597-0.485-0.873
	c-0.088-0.141-0.183-0.277-0.286-0.408c-0.103-0.121-0.216-0.234-0.337-0.337c-0.543-0.458-1.281-0.61-1.961-0.401l0.816-1.563
	l0.808-1.57c0,0-1.273,0.512-2.515,1.048c-1.26,0.556-2.491,1.141-2.491,1.141c-0.18-2.68-0.166-4.156,2.789-5.398
	c-1.022,0.2-2.057,0.33-3.097,0.392c-0.525,0.031-1.052,0.019-1.575-0.036c-0.484-0.051-0.972-0.041-1.453,0.031
	c-0.92,0.158-1.821,0.41-2.689,0.755l1.263-1.874c-0.857-0.135-1.732-0.086-2.569,0.143c-0.905,0.116-1.624,0.056-1.526-0.949
	c-0.252-1.357-1.066-2.544-2.242-3.268c-0.33-0.252-0.673-0.486-1.028-0.702c-0.373-0.215-0.767-0.426-1.179-0.635
	c-0.824-0.418-1.717-0.829-2.644-1.248c-0.944-0.379-1.922-0.767-2.903-1.184l-0.736-0.318c-0.245-0.109-0.49-0.22-0.739-0.318
	c-0.496-0.204-0.989-0.417-1.476-0.644c-0.486-0.227-0.967-0.466-1.438-0.721c-0.236-0.128-0.469-0.259-0.699-0.395l-0.69-0.395
	c-0.914-0.533-1.769-1.16-2.554-1.87c-0.048,1.7-0.243,2.315-0.516,2.36c-0.275,0.051-0.631-0.491-1.049-1.053
	c-0.828-1.125-1.894-2.487-2.544,0.002c-0.097-1.62-0.97-2.708,0.494-3.792c-0.463,0.084-0.935,0.103-1.403,0.059
	c-0.405-0.03-0.806-0.102-1.196-0.214c-0.742-0.214-1.388-0.543-2.015-0.78c-0.3-0.12-0.613-0.206-0.932-0.259
	c-0.317-0.054-0.641-0.035-0.949,0.056c-0.866,0.318-1.605,0.908-2.107,1.682c-0.273-1.614,1.072-2.193,0.785-3.164
	c-0.356,0.303-1.377,1.224-1.691,0.247c-0.312-0.971,0.697-1.247,1.401-1.858c-0.892-0.068-1.779,0.188-2.499,0.72
	c-0.679,0.578-1.203,1.316-1.523,2.147c-0.718,2.049-1.161,4.185-1.316,6.351c-0.87-1.124-1.571-1.627-2.22-1.482
	c-0.65,0.172-1.252,0.987-1.934,2.47c-0.616-1.489-1.748-3.049,0.61-3.564c-0.33-0.057-0.998-0.226-1.823-0.388
	c-0.413-0.081-0.864-0.161-1.332-0.225c-0.472-0.046-0.945-0.068-1.419-0.065c-1.889,0.019-3.602,0.508-3.525,2.353
	c-0.475-0.884-1.841-0.1-2.136,0.351c-0.73,0.013-1.297,0.005-1.781-0.005c-0.482-0.004-0.878,0.013-1.273,0.033
	c-1.001,0.07-1.992,0.252-2.953,0.542l0.877,0.47c-0.214,2.255-0.734,2.55-1.481,2.468c-0.745-0.096-1.736-0.635-2.792-0.157
	l-0.028-0.449c-0.887-0.403-1.856-0.591-2.829-0.549c-0.39,0.045-0.748,0.235-1.004,0.532c-0.253,0.29-0.621,0.454-1.006,0.448
	c-0.369-0.003-0.737-0.051-1.095-0.142c-0.613-0.131-1.219-0.295-1.813-0.493l1.044,2.536c0.595,2.886-0.67,2.366-2.448,1.532
	c-0.893-0.45-1.836-0.792-2.809-1.019c-0.837-0.268-1.751,0.035-2.262,0.749l0.246,0.166l0.541,0.374l0.779,0.548
	c-0.199,0.612-0.742,0.522-1.467,0.115c-0.939-0.61-1.826-1.298-2.651-2.055c-1.969-1.704-4.21-3.7-5.163-3.628
	c-0.564-0.293,0.21-1.016,0.563-1.574c-1.429-0.306-2.094-0.204-2.319,0.103c-0.225,0.313-0.01,0.853,0.297,1.499
	c0.616,1.291,1.577,3.01,0.252,4.107c-0.647-0.865-1.166-1.819-1.542-2.832c-0.184-0.426-0.471-0.799-0.836-1.085
	c-0.401-0.262-0.909-0.3-1.345-0.101c-0.883-0.407-1.705,1.802-2.754,3.867c-0.433,1.025-1.051,1.961-1.824,2.761
	c-0.35,0.331-0.777,0.57-1.242,0.694c-0.509,0.136-1.047,0.125-1.55-0.032c1.403,0.847,2.74,1.734,2.079,3.524
	c-0.569,0.449-1.279,0.68-2.004,0.654c-0.429,0.035-0.896,0.041-1.361,0.064c-0.461,0.029-0.929,0.063-1.38,0.123
	c-0.824,0.047-1.613,0.349-2.258,0.863c-0.282,0.268-0.469,0.62-0.536,1.004c-0.075,0.526-0.038,1.061,0.111,1.571
	c-0.413-0.095-0.786-0.316-1.068-0.633c-0.211,0.606-0.47,1.195-0.774,1.76c-0.356,0.66-0.678,1.338-0.966,2.031
	c-0.666,1.285-0.83,2.772-0.46,4.171c-0.414-0.317-0.858-0.594-1.326-0.824c-0.347-0.171-0.719-0.287-1.101-0.344
	c-0.593-0.092-1.197,0.067-1.667,0.44c-0.476,0.403-0.857,0.905-1.117,1.472c-0.076,0.15-0.148,0.304-0.217,0.463
	c-0.066,0.161-0.125,0.329-0.184,0.497c-0.117,0.338-0.224,0.683-0.326,1.027c-0.205,0.687-0.391,1.363-0.606,1.944
	c-0.166,0.509-0.425,0.984-0.764,1.399c-0.612,0.655-1.561,0.621-3.233-0.767l-0.501,0.725l-0.512,0.742
	c-0.187,0.272-0.39,0.558-0.572,0.861l-1.488,2.387l-0.629-0.641c-0.301,0.291-0.576,0.609-0.822,0.948
	c-0.203,0.294-0.37,0.61-0.498,0.943c-0.225,0.571-0.32,1.185-0.278,1.798c0.154,1.173,0.547,2.302,1.156,3.316
	c-0.918,0.372-1.303-0.562-1.649-0.864c-2.084,1.75-3.165,2.821-3.412,4.203c-0.127,0.789-0.091,1.596,0.105,2.371
	c0.11,0.526,0.249,1.046,0.414,1.557c0.187,0.58,0.411,1.22,0.669,1.931l-2.732-0.831c0.241,0.443-0.087,0.96-0.708,1.594
	l-1.08,1.06c-0.402,0.39-0.841,0.815-1.281,1.278c-0.458,0.475-0.887,0.977-1.286,1.504c-0.388,0.552-0.722,1.141-0.997,1.758
	c-0.278,0.624-0.466,1.284-0.557,1.961c-0.047,0.349-0.053,0.702-0.019,1.053c0.031,0.37,0.095,0.736,0.191,1.094
	c-0.438-0.19-0.801-0.518-1.033-0.935c0.162,0.785,0.135,1.597-0.079,2.369c-0.104,0.384-0.242,0.758-0.41,1.118
	c-0.159,0.378-0.339,0.746-0.54,1.103c-0.428,0.741-0.896,1.459-1.401,2.15c-0.247,0.355-0.517,0.703-0.745,1.058
	C5.907,79.299,5.68,79.65,5.468,80c-0.411,0.648-0.753,1.337-1.023,2.056c-0.115,0.32-0.195,0.651-0.24,0.988
	c-0.03,0.32-0.013,0.642,0.05,0.957c0.258,1.247,1.329,2.356,3.788,3.238l0.301,0.636c0.172,0.379,0.439,0.886,0.703,1.386
	c0.527,1.003,1.059,1.977,1.059,1.977c0.65-2.318,1.736-1.981,2.899-1.328c1.163,0.66,2.409,1.612,3.352,0.805
	c0.207,0.894-0.683,1.921-1.664,2.493c-0.412,0.275-0.898,0.416-1.393,0.403c-0.452-0.045-0.798-0.421-0.805-0.874l0.549-0.299
	c-0.883-0.351-1.884-0.231-2.659,0.319c-0.507,0.55-0.831,1.244-0.928,1.986c-0.117,0.745-0.32,1.474-0.605,2.172
	c-0.137,0.286-0.347,0.531-0.61,0.709c-0.323,0.185-0.697,0.262-1.067,0.222c0.022,1.199-0.003,2.393-0.065,3.584
	c-0.021,0.298-0.025,0.595-0.03,0.893l-0.018,0.883c-0.021,0.595-0.049,1.19-0.084,1.786l-0.057,0.894
	c-0.022,0.298-0.044,0.596-0.049,0.893c-0.024,0.596-0.047,1.191-0.07,1.785l-0.089,1.79c-0.014,0.298-0.038,0.598-0.044,0.896
	l-0.011,0.892c-0.012,1.196-0.025,2.388-0.038,3.575c0.026,1.187,0.096,2.368,0.17,3.549c0.044,0.589,0.072,1.181,0.146,1.763
	c0.077,0.582,0.16,1.162,0.251,1.741c0.091,0.578,0.192,1.153,0.3,1.726l0.171,0.856c0.059,0.284,0.142,0.562,0.217,0.842
	l1.849-1.071l1.283-0.725l0.588-0.327l0.023,0.131c0.014,0.084,0.033,0.204,0.066,0.345l0.23,1.04l0.337,1.515
	c-0.686,1.062-2.778,2.055-3.282-0.192c-0.956,0.912-0.196,1.707,0.9,2.204c0.281,0.126,0.57,0.233,0.865,0.32
	c0.291,0.083,0.586,0.15,0.884,0.201c0.411,0.09,0.835,0.109,1.253,0.055c-0.061,2.317-1.334,2.36-2.572,1.917
	c-1.236-0.436-2.428-1.349-2.239-0.672l0.934,1.689l0.314-0.566c1.06,0.435,2.021,0.516,2.808,0.818
	c0.397,0.141,0.755,0.375,1.043,0.683c0.369,0.402,0.639,0.883,0.792,1.406c-0.114,1.894-2.027,1.808-1.908,2.501
	c-0.279,0.115-0.312,0.387,0.297,1.026c0,0,0.072,0.247,0.21,0.603l0.492,1.318l0.723,1.92l1.123-1.456l1.136-1.43
	c1.108,0.439,1.465,1.282,1.868,1.614c0.215,0.184,0.534,0.177,0.739-0.017c0.525-0.43,0.99-0.929,1.382-1.483
	c-0.482,0.572-0.801,1.264-0.924,2.002c-0.119,0.752-0.102,1.52,0.052,2.266c0.388,1.679,1.074,3.275,2.027,4.712
	c0.449,0.74,0.935,1.458,1.457,2.149c0.488,0.674,0.952,1.307,1.346,1.884l0.555,0.807c0.155,0.229,0.297,0.465,0.426,0.709
	c0.21,0.333,0.31,0.723,0.285,1.116c0.755,0.108,1.491,0.319,2.187,0.629c0.611,0.257,1.182,0.6,1.696,1.018
	c1,0.915,1.892,1.943,2.658,3.061c0.014-1.004,2.513-3.74,3.801-1.66c-1.126,0.669-2.018,1.669-2.553,2.865
	c-0.218,0.778-0.113,1.611,0.292,2.31c0.43,0.775,0.783,1.59,1.055,2.433c0.13,0.495,0.18,1.008,0.148,1.519
	c-0.028,0.495-0.123,0.983-0.282,1.452c0.627-1.424,2.053-0.427,3.484,0.344c0.657,0.447,1.444,0.661,2.237,0.608
	c0.664-0.135,1.184-0.739,1.468-2.178c0.605,0.899,0.18,1.473-0.392,2.116c-0.763,0.64-1.207,1.582-1.216,2.578
	c0.358,0.061,0.711,0.149,1.056,0.263c0.336,0.112,0.656,0.249,0.977,0.387c0.634,0.291,1.232,0.655,1.781,1.086
	c0.566,0.45,1.103,0.935,1.607,1.453c0.534,0.51,1.056,1.063,1.582,1.635c0.529,0.567,1.049,1.175,1.61,1.741
	c0.565,0.561,1.148,1.117,1.759,1.645c0.306,0.264,0.618,0.521,0.939,0.767c0.161,0.123,0.323,0.243,0.488,0.361
	c0.168,0.111,0.34,0.218,0.514,0.322c0.698,0.422,1.435,0.774,2.201,1.052c0.253-0.564,0.458-1.148,0.615-1.746
	c0.259-0.761,0.856-1.358,1.616-1.618l0.093,0.938l0.104,0.965l0.142,1.089c0.198,1.485,0.443,2.991,0.443,2.991
	c0.693,0.063,1.576-1.115,2.353-1.794c0.389-0.34,0.751-0.552,1.059-0.425c0.313,0.117,0.567,0.574,0.754,1.597
	c0.031-0.901,0.108-2.245,1-2.215c0.579,0.572,1.193,1.108,1.838,1.604c0.16,0.123,0.321,0.244,0.484,0.362
	c0.164,0.115,0.333,0.219,0.501,0.325c0.337,0.211,0.679,0.412,1.026,0.604c0.694,0.385,1.406,0.734,2.131,1.055
	c0.36,0.168,0.736,0.292,1.109,0.426c0.374,0.13,0.75,0.255,1.129,0.373c0.757,0.237,1.523,0.452,2.293,0.651
	c0.779,0.168,1.564,0.317,2.349,0.46c0.787,0.137,1.569,0.29,2.361,0.397l2.376,0.304l1.183,0.165l0.59,0.086l0.593,0.067
	c0.79,0.093,1.577,0.2,2.361,0.33c0.392,0.065,0.783,0.136,1.173,0.213c0.39,0.08,0.784,0.132,1.175,0.211
	c0.782,0.148,1.563,0.327,2.342,0.543c0.39,0.108,0.779,0.229,1.169,0.353c0.391,0.111,0.782,0.233,1.174,0.366
	c0.803,0.273,1.59,0.588,2.359,0.945c0.79,0.381,1.587,0.756,2.393,1.202c0.842,0.468,1.66,0.979,2.45,1.531
	c-0.899-0.975-1.037-1.509-0.799-1.807c0.24-0.298,0.862-0.358,1.527-0.393c-0.869-0.464-0.018-2.468-0.213-3.827
	c0,0,0.082,0.063,0.225,0.158l0.597,0.403c0.495,0.333,1.164,0.776,1.844,1.218c0.679,0.442,1.371,0.883,1.895,1.213
	c0.262,0.169,0.481,0.293,0.634,0.383l0.242,0.14c0.35-1.921,1.738-2.113,3.089-2.285c0.33-0.033,0.658-0.087,0.982-0.159
	c0.297-0.07,0.582-0.185,0.845-0.341c0.574-0.378,0.892-1.043,0.824-1.727l-1.534,0.878c0.48-2.393-0.054-4.878-1.476-6.862
	c-1.414-2.344-2.314-4.963-2.637-7.681c-0.397,1.25-0.995,1.463-1.678,1.191c-0.829-0.497-1.58-1.113-2.23-1.828
	c-0.364-0.356-0.757-0.683-1.173-0.976c-0.185-0.126-0.382-0.234-0.589-0.32c-0.187-0.087-0.387-0.144-0.591-0.169
	c-0.792-0.084-1.587,0.458-2.462,2.18c-0.7-1.117,0.66-1.752,0.296-3.017c-0.857,2.356-1.94,2.749-3.732,1.606l0.25-0.566
	c-0.326,0.017-0.641,0.025-0.945,0.022c-0.303-0.01-0.595-0.045-0.877-0.08c-0.538-0.07-1.071-0.174-1.596-0.314
	c-0.251-0.067-0.496-0.141-0.736-0.221l-0.356-0.124c-0.117-0.046-0.233-0.1-0.348-0.151c-0.459-0.21-0.905-0.441-1.35-0.687
	s-0.889-0.509-1.344-0.782c-0.229-0.131-0.456-0.286-0.689-0.442l-0.712-0.472c-0.486-0.318-0.996-0.643-1.543-0.968l-0.417-0.244
	l-0.427-0.271c-0.29-0.181-0.591-0.362-0.903-0.543l-0.258,2.717c-1.115-0.663-1.143-1.543-1.509-2.336
	c-1.241,1.79-0.421,2.06,0.419,2.393c0.831,0.33,1.686,0.724,0.5,2.741c0.008-1.135-0.527-2.206-1.441-2.879
	c-0.416-0.292-0.859-0.544-1.323-0.752c-0.476-0.214-0.981-0.396-1.479-0.581c-0.249-0.093-0.497-0.186-0.739-0.285
	c-0.239-0.106-0.469-0.228-0.69-0.353c-0.431-0.235-0.822-0.54-1.155-0.901c-0.742-0.916-0.966-2.148-0.592-3.266
	c-0.83-0.374-1.01,0.398-1.181,1.173c-0.172,0.774-0.336,1.55-1.207,1.161l0.204-1.744l-1.309,1.805
	c-0.258-0.217-0.443-0.508-0.529-0.834c-0.099-0.376-0.139-0.766-0.117-1.154c0.044-0.807,0.23-1.6,0.549-2.342
	c0.189,0.279,0.907-0.004,1.232,0.018c-0.277-1.24-1.293-1.544-2.302-1.652c-0.508-0.043-0.987-0.085-1.364-0.141
	c-0.21-0.014-0.413-0.085-0.587-0.204l0.43,0.723l0.363,0.605c0.098,0.168,0.17,0.269,0.17,0.269c-0.646-0.122-1.28-0.3-1.896-0.532
	c-0.313-0.114-0.624-0.239-0.934-0.371l-0.465-0.204c-0.152-0.075-0.3-0.157-0.45-0.238c-0.598-0.325-1.194-0.673-1.791-1.024
	c-0.295-0.181-0.605-0.341-0.891-0.538l-0.874-0.569c-0.586-0.374-1.181-0.732-1.791-1.063c-0.587-0.363-1.197-0.688-1.826-0.973
	c-1.299-0.602-2.687-0.988-4.11-1.145l-0.518,1.216c-0.47-0.06-0.933-0.173-1.379-0.335c-0.299-0.121-0.575-0.292-0.816-0.506
	c-0.351-0.347-0.594-0.787-0.7-1.269c-0.068-0.233-0.132-0.474-0.219-0.721c-0.095-0.264-0.211-0.52-0.349-0.765
	c-0.429-0.694-1.036-1.261-1.759-1.64l0.325-0.102c-1.273,0.368-2.642-0.073-3.461-1.115c0.922-0.095,1.108-0.964,1.354-1.795
	c0.243-0.835,0.548-1.631,1.625-1.678l-0.795-0.22c-0.235-0.072-0.45-0.135-0.647-0.189c-0.329-0.094-0.664-0.169-1.002-0.225
	c-0.449-0.083-0.911-0.061-1.35,0.063c-0.407,0.113-0.84,0.302-1.516,0.511c-0.966,0.294-1.96,0.487-2.966,0.575l0.638-0.912
	l0.644-0.904c-0.822,0.204-1.659,0.338-2.504,0.401c-0.854-0.03-1.66-0.404-2.236-1.036c1.263,0.256,1.712-0.515,2.252-1.282
	c0.515-0.985,1.585-1.549,2.689-1.416c0.368-1.068,0.171-2.25-0.523-3.142c-0.591-0.594-1.303-1.054-2.088-1.348
	c-0.342-0.148-0.671-0.325-0.983-0.529c-0.13-0.089-0.247-0.194-0.349-0.313c-0.09-0.113-0.154-0.245-0.187-0.385
	c-0.133-0.567,0.218-1.36,1.469-2.591c-1.03,0.057-2.008,0.47-2.766,1.168c-0.353,0.464-0.442,1.076-0.235,1.621
	c0.08,0.262,0.182,0.518,0.304,0.764c0.111,0.235,0.245,0.431,0.327,0.595c0.171,0.326,0.19,0.498-0.232,0.405
	c-0.654,0.856-1.786,1.191-2.8,0.829c-0.977-0.177-1.776-0.88-2.076-1.826c-0.153-0.353,0.106-0.891,0.557-1.539
	c0.45-0.647,1.124-1.422,1.751-2.23c0.633-0.762,1.163-1.603,1.58-2.502c0.171-0.393,0.272-0.813,0.296-1.241
	c0.037-0.418-0.034-0.838-0.207-1.22c0.108,0.332,0.525,0.177,0.63,0.508c0.433-0.898-0.27-1.276-0.892-1.756
	c-0.317-0.204-0.564-0.5-0.708-0.848c-0.077-0.503,0.083-1.014,0.433-1.383c-1.808,0.194-1.944-0.331-2.162-0.726
	c-0.219-0.398-0.525-0.677-2.706-0.093l2.116,2.794c-1.344-0.655-2.733-1.213-4.157-1.669c-0.69-0.271-1.277-0.751-1.679-1.374
	c-0.377-0.719-0.391-1.574-0.038-2.305c1.12,0.122,2.205,0.46,3.196,0.996c0.501-0.636,0.164-0.989-0.174-1.357
	c-0.338-0.365-0.68-0.745-0.126-1.388c0.738-0.24,1.542-0.173,2.23,0.187c0.445,0.341,0.773,0.813,0.938,1.35
	c0.202,0.599,0.481,1.17,0.83,1.697c0.503,0.605,1.217,0.995,1.998,1.092c0.284-0.223,0.333-0.634,0.11-0.918
	c-0.024-0.031-0.052-0.06-0.081-0.086c-0.313-0.296-0.647-0.57-0.999-0.819c-0.617-0.511-0.811-0.903,1.653-1.181
	c-3.153,0.287-3.227-0.631-3.148-1.66c0.126-0.524,0.101-1.073-0.07-1.584c-0.237-0.5-0.813-0.936-2.116-1.254l2.667-0.455
	c-0.245-0.131-0.747-0.306-1.155-0.55c-0.416-0.241-0.782-0.54-0.815-0.887c0,0,0.918,0.132,1.831,0.248
	c0.914,0.117,1.824,0.219,1.824,0.219c-1.63-0.58-1.168-1.619-0.528-2.616c0.159-0.251,0.33-0.501,0.48-0.746
	c0.151-0.228,0.283-0.469,0.394-0.719c0.236-0.433,0.109-0.974-0.294-1.258c0.185,0.591,0.089,1.235-0.261,1.746
	c-0.347,0.318-0.8,0.497-1.27,0.503c-1.065,0.129-2.441,0.008-3.251,0.987c-0.448-0.357-0.786-0.834-0.972-1.376
	c-0.112-0.363-0.059-0.756,0.143-1.077c0.603-0.715,1.375-1.269,2.245-1.613c0.98-0.434,1.897-0.997,2.727-1.675
	c0.736-0.628,1.003-1.647,0.67-2.555c-0.046,0.518-0.321,0.988-0.75,1.282c-0.531,0.555-1.376,0.667-2.032,0.268
	c0.126-0.28,0.27-0.552,0.43-0.815c0.177-0.299,0.383-0.58,0.614-0.839c0.493-0.57,1.098-1.032,1.777-1.357
	c-0.354-1.618-1.047-1.49-1.86-1.097c-0.815,0.388-1.755,1.06-2.618,0.349c1.618-0.641,1.256-1.035,0.394-1.496
	c-1.053-0.384-2.011-0.991-2.808-1.779l2.744,0.03c0.191-0.362,0.284-0.769,0.269-1.178c-0.009-0.274-0.132-0.533-0.34-0.712
	c-0.533-0.356-1.143-0.581-1.78-0.655c-1.37-0.282-2.692-0.548-1.526-2.346c0,0,0.926,0.473,1.853,0.924
	c0.927,0.453,1.855,0.883,1.855,0.883l-0.439-0.959l-0.303-0.667l-0.121-0.304l1.534,0.323l1.54,0.315
	c-1.055-1.065-1.403-1.771-1.367-2.418c0.034-0.345,0.142-0.679,0.316-0.979c0.18-0.343,0.46-0.711,0.748-1.157
	c-1.092,0.067-2.183-0.158-3.159-0.653c-0.911-0.339-1.517-1.207-1.521-2.179c0.349-0.197,0.749-0.285,1.148-0.255
	c0.257,0.033,0.512,0.085,0.761,0.156c0.391,0.078,0.569-0.046,0.638-1.32c0.733,0.36,1.414,0.816,2.026,1.356
	c0.179,0.214,0.222,0.417,0.056,0.604c-0.338,0.284-0.751,0.465-1.189,0.522c0.864,0.263,1.61,0.827,2.468,1.076
	c0.786-0.305,1.293-1.074,1.262-1.917c0.021-0.728-0.202-1.47-0.129-1.894c-0.153,0.359-0.446,0.641-0.811,0.778l-0.471-0.658
	c-0.279-0.396-0.664-0.935-1.023-1.479c-0.697-1.079-1.386-2.214-1.386-2.214c1.141-0.292,1.824,0.371,2.503,0.996
	c-0.133-0.443-0.35-0.856-0.638-1.218c-0.328-0.42-0.502-0.94-0.491-1.473c2.059,0.891,4.256,1.486,4.928,3.125l-0.249-0.584
	c-0.151-0.352-0.353-0.827-0.517-1.298c-0.349-0.945-0.692-1.925-0.692-1.925c0.662-0.026,1.32-0.113,1.965-0.262
	c0.705-0.114,1.405-0.133,1.715,0.188c0.927-0.594,0.257-1.942-0.288-3.415c-0.269-0.686-0.431-1.409-0.479-2.145
	c-0.065-0.663,0.276-1.3,0.864-1.613c-0.386-0.327-0.625-0.795-0.664-1.299c0.389-0.459,0.834-0.868,1.325-1.215
	c0.511-0.332,0.998-0.699,1.457-1.098c0.438-0.389,0.751-0.899,0.898-1.466c0.174-0.767,0.12-1.568-0.155-2.305
	c0,0,1.051,0.193,2.087,0.406c1.03,0.207,2.079,0.455,2.079,0.455c0.181-1.074-1.139-1.372-2.45-1.815
	c-1.308-0.451-2.603-1.044-2.202-2.988c0.2-1.443,1.032-1.163,1.992-0.514c0.955,0.644,2.038,1.616,2.747,1.598
	c-0.628-1.259-1.056-2.609-1.269-4c-0.012-0.163-0.013-0.326-0.003-0.489c0.014-0.149,0.041-0.296,0.082-0.44
	c0.073-0.274,0.213-0.526,0.406-0.733c0.553-0.486,1.298-0.693,2.023-0.56c0.089,1.082-0.745,1.166-0.973,1.907l1.418,0.025
	l1.397,0.045c0.426,1.173,0.705,2.395,0.831,3.637c0.061,0.318,0.263,0.592,0.548,0.744c0.538,0.257,1.107,0.443,1.693,0.552
	c-1.478-1.243-2-2.203-2.037-3.035c0.027-0.811,0.337-1.587,0.876-2.193c0.539-0.613,0.874-1.377,0.961-2.188
	c-0.096-1.271-0.71-2.447-1.698-3.252l0.99,0.158l0.979,0.167c-0.284,0.181-0.002,0.54-0.281,0.716
	c1.046,0.26,1.383,0.08,1.363-0.374c-0.037-0.299-0.125-0.589-0.26-0.858c-0.145-0.333-0.339-0.709-0.541-1.106
	c-0.816-1.583-1.742-3.505-0.244-4.135c0.291-0.071,0.592-0.094,0.89-0.068c0.277,0.018,0.549,0.084,0.804,0.194
	c0.487,0.192,0.813,0.654,0.833,1.177l0.274-1.464l0.296-1.488c0.322-0.118,0.68,0.035,0.818,0.348
	c0.11,0.164,0.148,0.366,0.106,0.559l0.154-0.174l0.841-0.891c0.615-0.654,1.23-1.309,1.23-1.309l0.111,0.2
	c-0.166-0.769-0.269-1.55-0.308-2.336c-0.054-0.831-0.06-1.632-0.038-2.128c1.396,0.397,0.065,0.944,0.803,1.604l0.322-1.346
	l0.233-0.935c0.067-0.253,0.117-0.415,0.117-0.415c0.789,0.546,1.241,1.461,1.197,2.419c0.046,0.778-0.363,1.512-1.05,1.881
	c1.463,1.339,2.186,1.867,2.562,1.914c0.375,0.049,0.397-0.386,0.43-0.937c-0.024-0.578,0.146-1.148,0.483-1.618
	c0.237-0.237,0.555-0.375,0.89-0.388c0.237-0.017,0.474-0.004,0.708,0.038c0.316,0.053,0.625,0.139,0.922,0.257l-0.169,0.266
	l-0.352,0.61l-0.503,0.879c0.574,0.6,1.229,1.118,1.944,1.54c0.426,0.228,0.892,0.371,1.373,0.421
	c1.086-0.013,2.159,0.244,3.12,0.749c-0.511-0.532-2.119-1.615-3.576-2.856c-1.448-1.247-2.727-2.653-2.258-3.997
	c0.377,0.147,0.801,0.108,1.145-0.104c0.464-0.453,0.738-1.065,0.769-1.713c1.255,2.445,1.928,1.381,3.103,0.641l1.442,3.346
	c0.192-0.371,0.311-0.775,0.352-1.19c0.039-0.404,0.035-0.811-0.012-1.215c-0.142-0.868-0.197-1.749-0.165-2.628
	c0.933-0.049,1.818,0.422,2.298,1.224c0.72,0.964,1.362,1.983,1.92,3.05c1.26-0.142,0.48-1.064-0.331-2.141
	c-0.807-1.08-1.658-2.309-0.283-3.169c1.055,0.267,2.173-0.026,2.961-0.776c0.953-1.045,1.834-2.153,2.637-3.317
	c0.668,0.185,1.076,0.857,0.933,1.535c-0.062,0.562-0.243,1.125,0.153,1.563l0.32-1.577l0.348-1.585
	c0.353-0.016,0.441,0.88,0.487,1.332c0.206-0.349,0.309-0.749,0.298-1.155c0.005-0.418-0.058-0.864-0.098-1.311
	c-0.216-0.904,0.093-1.854,0.8-2.458c-0.066-1.008,0.228-1.204,0.721-1.006c0.308,0.144,0.598,0.326,0.862,0.541
	c0.161,0.122,0.329,0.255,0.502,0.394l0.534,0.448c0.612,0.595,1.352,1.042,2.164,1.306c0.683,0.13,1.286-0.221,1.757-1.39
	c0.693,0.975-0.034,2.242,0.303,3.626c1.394-1.626,2.055-2.237,2.62-2.966c0.286-0.374,0.556-0.735,0.911-1.29l1.457-2.307
	l1.211,1.142c0.298,0.277,0.592,0.595,0.81,0.816l0.363,0.377c-0.782-1.324-0.855-2.95-0.194-4.339
	c0.71-1.553,1.65-2.989,2.789-4.26c-0.466-1.047-1.002-2.062-1.603-3.038c0,0,0.889-0.481,1.777-0.963
	c0.45-0.25,0.902-0.448,1.244-0.618l0.572-0.273c0.403,0.621-0.032,1.85-0.66,3.336c0.247-0.287,0.485-0.57,0.674-0.836
	c1.169,1.415,0.369,3.472-0.551,5.455c-0.361-0.74-0.728-1.528-1.095-2.313c-0.988,2.125-1.508,4.437-1.525,6.78
	c0.225-0.432,0.588-0.776,1.031-0.978c-0.216,0.469-0.31,0.984-0.273,1.499c0.094,0.389,0.427-0.437,0.967-1.325
	c0,0,0.132,1.024,0.265,2.047l0.246,2.046l0.241-1.599c0,0,0.947,0.691,1.856,1.376c0.457,0.329,0.9,0.722,1.232,0.991l0.548,0.459
	c0.777-0.94,1.576-2.008,2.425-3.083c0.85-1.071,1.756-2.097,2.713-3.073c0.483-0.485,0.99-0.945,1.519-1.379
	c0.516-0.412,1.063-0.782,1.638-1.107c0.566-0.323,1.16-0.592,1.775-0.805c0.615-0.222,1.258-0.357,1.911-0.401
	c-0.805,1.096-1.322,2.376-1.505,3.724c-0.22,1.269-0.332,2.637-0.773,4.342c-0.077-0.994-0.369-1.419-0.779-1.546
	c-0.529-0.066-1.065,0.051-1.517,0.333c-0.576,0.277-1.191,0.617-1.797,0.853c-0.54,0.28-1.177,0.304-1.738,0.067
	c1.127,0.576,0.572,2.192,0.191,2.718l0.702-0.426l0.729-0.435l0.841-0.458c1.151-0.623,2.356-1.239,2.356-1.239
	c-0.361,1.398-0.267,1.969,0.006,2.361c0.41,0.409,0.772,0.863,1.079,1.354c0.31-2.864,1.274-3.591,2.467-3.751
	c0.304-0.038,0.611-0.051,0.918-0.04c0.309,0.02,0.621,0.051,0.932,0.067c0.608,0.068,1.222-0.029,1.779-0.281
	c-0.184,0.868-0.579,1.677-1.151,2.356c-0.551,0.6-1.47,0.679-2.116,0.182c0.233,1.199,0.621,1.446,1.119,1.215
	c0.664-0.453,1.246-1.015,1.721-1.663c0.504-0.676,1.116-1.265,1.811-1.743c0.544-0.278,1.002-0.112,1.225,0.941
	c-0.499-0.136-0.664-0.508-1.179,0.341c0.788-0.517,1.831-0.404,2.49,0.269c0.309,0.279,0.514,0.655,0.579,1.066
	c0.063,0.4-0.071,0.807-0.36,1.091l-0.475-0.16c0.834,0.559,1.731,1.018,2.672,1.368c0.263,0.093,0.523,0.202,0.789,0.302
	s0.539,0.192,0.814,0.275c0.553,0.169,1.118,0.298,1.69,0.385c0.286,0.041,0.571,0.073,0.848,0.108
	c0.277,0.03,0.555,0.046,0.833,0.048c0.544,0.006,1.087-0.058,1.615-0.19c0.523-0.131,1.022-0.347,1.475-0.638
	c0.478-0.308,0.895-0.701,1.231-1.16c-0.142,0.281-0.974,1.482-1.843,2.711c-0.869,1.226-1.783,2.496-2.109,2.874l0.566-0.489
	c0.361-0.309,0.871-0.736,1.497-1.251c1.249-1.026,2.952-2.373,4.719-3.682c0.879-0.65,1.786-1.313,2.623-1.889
	c0.841-0.583,1.639-1.12,2.328-1.575c1.38-0.911,2.326-1.5,2.326-1.5c-1.755,2.386-3.363,4.876-4.815,7.458
	c-1.774,2.767-3.689,5.17-5.442,5.406c0.123,0.498,0.379,0.953,0.74,1.318c0.62,0.428,1.388,0.585,2.126,0.432
	c0.256-1.105,0.689-2.161,1.281-3.129c0.702-1.304,1.526-2.513,1.952-2.431c-0.322,1.277-0.512,2.585-0.565,3.901
	c0.007,0.338,0.038,0.667,0.042,1.198c0.001,0.755-0.047,1.509-0.145,2.258c0.559-1.18,1.379-2.217,2.399-3.033
	c1.289-1.16,2.732-2.014,3.2-1.494c-0.75,0.594-3.768,4.679-4.7,5.204c0.377-0.173,1.754-0.801,3.179-1.396
	c0.838-0.354,1.657-0.664,2.29-0.907l0.722-0.27c-0.854,0.576-1.577,1.323-2.125,2.195c-0.773,1.074-1.429,2.228-1.957,3.441
	c0.302-0.573,0.781-0.101,1.312,0.519c0.516,0.637,1.048,1.45,1.568,1.514l0.057-0.992l0.047-1.002
	c0.465,0.741,1.374,1.07,2.206,0.798c0.532-0.099,1.055-0.243,1.563-0.43c0.546-0.187,1.119-0.414,1.7-0.64
	c1.092-0.476,2.235-0.825,3.407-1.041c0.945-0.247,1.947,0.091,2.549,0.861c-1.403,0.699-2.703,1.587-3.865,2.638
	c-1.481,1.297-2.734,2.77-2.475,3.714c0.76-0.365,2.047-0.997,3.633-1.7c1.584-0.702,3.484-1.483,5.4-2.109
	c1.856-0.634,3.765-1.098,5.704-1.387c0.824-0.121,1.657-0.164,2.49-0.129c0.663,0.025,1.317,0.162,1.934,0.404l-0.565,0.836
	l-0.57,0.83l1.718,0.64c0.438,0.16,0.852,0.34,1.168,0.473l0.527,0.224c-2.556,0.477-6.77,1.13-10.755,1.852
	c-1.982,0.346-3.999,0.762-5.749,1.108c-1.76,0.352-3.278,0.651-4.416,0.832c-0.377,1.954-1.528,1.649-0.239,3.076
	c-0.368,0.638-1.076,1.001-1.809,0.926c-0.487-0.037-0.953-0.217-1.338-0.518l0.82,2.041c0.216,0.497,0.379,1.027,0.514,1.412
	l0.22,0.644c1.133-0.888,2.625-1.176,4.007-0.774c1.194,0.468,2.538,0.352,3.635-0.313l-0.934-0.347l-0.949-0.345l-1.119-0.354
	c-1.52-0.474-2.988-0.889-2.988-0.889c1.932-1.375,4.202-2.196,6.567-2.374c0.599-0.05,1.201-0.049,1.799,0.005
	c0.545,0.041,1.081,0.157,1.594,0.344c0.898,0.283,1.628,0.944,1.998,1.81c-0.979,1.005-2.209,1.73-3.562,2.1
	c-1.261,0.433-2.495,0.942-3.694,1.525c0.384-0.07,0.779-0.039,1.147,0.09c0.208,0.065,0.411,0.146,0.607,0.243
	c0.19,0.098,0.371,0.212,0.541,0.342c0.664,0.502,1.083,1.137,0.743,1.488l-1.229-0.122l-1.218-0.105
	c-0.21,1.126,1.242,1.147,2.501,1.388c0.547,0.037,1.06,0.277,1.44,0.671c0.259,0.371,0.221,0.938-0.369,1.815
	c-0.063,0.355-0.227,0.685-0.473,0.95c-0.29,0.401-0.669,0.851-1.005,1.255c-0.66,0.804-1.07,1.39-0.006,1.005
	c5.887-3.957,12.335-7.007,19.128-9.048c-0.071,0.212-0.544,1.78-1.228,3.454c-0.172,0.42-0.351,0.844-0.55,1.262
	c-0.207,0.421-0.422,0.831-0.64,1.214c-0.357,0.666-0.798,1.284-1.311,1.838c-1.623,1.103-3.554,1.66-5.515,1.592
	c-1.832-0.052-3.639,0.429-5.203,1.385c0.968-0.228,1.979-0.212,2.939,0.047c-0.562,1.07-3.166,0.767-2.125,2.249
	c1.885-0.478,2.068,0.427,2.111,0.958c0.039,0.526-0.056,0.723,1.251-1.172c0.589,0.384,0.83,1.127,0.581,1.784
	c-0.274,0.703-0.3,1.479-0.075,2.2c1.72-0.663,3.596-0.809,5.398-0.42c1.007,0.15,1.995,0.407,2.947,0.767
	c0.4,0.151,0.787,0.336,1.155,0.554c0.285,0.17,0.544,0.382,0.767,0.628c-0.963,0.189-1.878,0.567-2.693,1.114
	c0.094,0.897,0.11,1.801,0.045,2.701c-0.083,0.833-0.237,1.609-0.371,2.366c-0.142,0.759-0.254,1.499-0.342,2.274
	c-0.114,0.821-0.137,1.652-0.07,2.479c-0.526,0.354-1.025,0.746-1.494,1.172c-0.587,0.495-1.389,0.648-2.117,0.402
	c0.711,0.441,2.039,0.824,2.178,1.905c-1.629,1.106-1.785,0.503-2.028-0.13c-0.243-0.643-0.571-1.315-2.553-0.446
	c1.059,0.056,2.033,0.596,2.642,1.464c0.178,0.208,0.349,0.428,0.517,0.653c0.171,0.225,0.336,0.456,0.486,0.685
	c0.294,0.453,0.618,0.886,0.971,1.295c0.617,0.005,1.197-0.29,1.558-0.791c0.194-0.454,0.155-0.974-0.104-1.395
	c-0.619-1.073-1.404-2.041-2.326-2.868c3.075-0.186,6.121,0.682,8.635,2.461c0.502,0.35,0.974,0.742,1.411,1.171
	c0.854,0.843,1.571,1.815,2.123,2.88c0.293,0.841,0.243,1.353-0.006,1.644c-0.283,0.277-0.677,0.409-1.07,0.36
	c-0.839-0.02-1.724-0.375-1.4-0.08c-0.287,1.223-0.033,2.511,0.699,3.533c0.658,0.881,1.434,1.666,2.307,2.334
	c0.784,0.561,1.412,1.313,1.823,2.186c0.147,0.431,0.142,0.9-0.014,1.328c-0.222,0.602-0.567,1.151-1.012,1.612
	c-1.435,0.644-3.068,0.692-4.538,0.132c-1.188-0.497-2.441-0.818-3.722-0.955c-0.278-1.113,0.109-2.286,0.995-3.016
	c0.704-0.793,1.528-1.495,1.561-2.378l-0.835,0.997l-0.833,0.978c-0.923-0.942-1.509-2.666-0.533-3.502
	c-0.778,0.47-1.327,1.241-1.516,2.13c-0.171,0.559-0.309,1.128-0.415,1.703c-0.146,0.614-0.279,1.271-0.413,1.95
	c-0.139,0.678-0.26,1.381-0.433,2.075c-0.188,0.692-0.393,1.382-0.63,2.045c-0.118,0.331-0.244,0.656-0.38,0.971
	c-0.129,0.313-0.282,0.616-0.457,0.906c-0.327,0.56-0.721,1.076-1.175,1.539c0.796,0.997,1.475,2.615,2.82,2.326l-0.051-1.489
	c1.052-0.227,2.115,0.336,2.518,1.334c0.506,0.786,0.863,1.491,1.657,0.73c0.145,0.301,0.304,0.611,0.466,0.929
	c0.156,0.317,0.306,0.638,0.455,0.967c0.304,0.65,0.548,1.327,0.728,2.022c0.176,0.663,0.212,1.355,0.104,2.032
	c-0.161,0.706-0.527,1.349-1.053,1.847l-1.729-0.348l-1.535-0.319c0.975,0.103,2.36-1.15,1.673-2.183
	c0.534,0.811-0.966,1.459-2.091,2.194c-0.523,0.261-0.929,0.708-1.138,1.254c-0.117,0.479,0.145,1.051,1.074,1.786l1.509-0.468
	l0.557-0.178l0.473-0.164l0.463-0.162c0.111,0.322,0.26,0.669,0.398,1.022l0.447,1.101c0.321,0.762,0.597,1.542,0.827,2.337
	c0.106,0.382,0.186,0.77,0.239,1.162c0.055,0.363,0.061,0.732,0.018,1.097c-0.069,0.694-0.39,1.339-0.903,1.811
	c1.82,0.189,1.804-0.005,1.887-0.236c0.083-0.239,0.274-0.5,2.526-0.576c-2.622-0.248-1.877-1.848-1.225-3.336
	c0.359-0.59,0.527-1.277,0.48-1.966c-0.136-0.417-0.571-0.666-1.541-0.666c1.259,0.033,2.468-0.488,3.31-1.424
	c0.372-0.433,0.79-0.824,1.246-1.166c0.137-0.097,0.286-0.192,0.452-0.287c0.16-0.096,0.337-0.191,0.533-0.284
	c0.465-0.216,0.946-0.394,1.439-0.534c-1.121-0.275-2.379,0.22-1.134-1.845c-0.3-0.232-0.574-0.495-0.816-0.786
	c0.039-0.046,0.082-0.087,0.129-0.125c-0.057,0.031-0.116,0.05-0.168,0.083c-0.136-0.146-0.169-0.166-0.058,0.032
	c-0.605,0.384-1.305,0.591-2.022,0.601c-0.503-0.437-0.881-0.998-1.099-1.628c-0.106-0.299-0.188-0.607-0.244-0.919
	c-0.029-0.156-0.053-0.313-0.074-0.47l-0.068-0.474c-0.005-1.107-0.242-2.201-0.696-3.211c0.86-1.132,1.146,0.847,2.516,0.448
	l-0.77-1.108c-0.4-0.553-0.811-1.098-0.811-1.098c1.201,0.019,2.392-0.225,3.488-0.715c1.007-0.275,1.805-0.189,2.199,1.569
	l0.713-2.858c0.433-0.351,0.814-0.762,1.13-1.222c0.307-0.436,0.555-0.911,0.735-1.412c0.17-0.463,0.258-0.952,0.261-1.445
	c0.008-0.461-0.105-0.917-0.327-1.321C195.47,112.178,194.864,111.211,194.4,110.609z M13.107,137.398l0.416-0.865
	C14.796,137.521,13.987,137.444,13.107,137.398z M64.305,41.064c-0.157,0.464-0.431,0.678-1.005,0.078
	c-0.548-1.507-0.519-2.004-0.21-2.08c0.314-0.068,0.917,0.299,1.528,0.484C64.542,40.058,64.438,40.565,64.305,41.064z
	 M102.988,23.831c0.686-0.209,1.425,0.079,1.789,0.696C104.276,25.38,103.673,24.916,102.988,23.831L102.988,23.831z M153.358,31.75
	c0.358-0.505,0.298-0.943,0.764-0.629C153.85,31.309,153.595,31.52,153.358,31.75z M192.111,115.74
	c-0.037-0.037-0.077-0.07-0.121-0.098C193.297,114.224,192.788,114.721,192.111,115.74z"/>
<path fill="#A09E6D" d="M99.62,28.031c-0.131-0.487-0.202-0.987-0.211-1.491C99.145,27.029,99.231,27.633,99.62,28.031z"/>
<path fill="#A09E6D" d="M38.17,72.457c-0.033,0.014-0.037,0.041-0.065,0.057c0.13,0.106,0.27,0.199,0.417,0.279L38.17,72.457z"/>
<path fill="#A09E6D" d="M164.785,76.511c0.192-0.556,0.538-1.046,0.996-1.415C165.121,75.221,164.68,75.848,164.785,76.511z"/>
<path fill="#A09E6D" d="M188.277,136.362c0.523,0.167,1.342,0.161,1.435,0.559l0.009-0.114c0.02-0.214,0.041-0.502,0.05-0.794
	l0.049-1.157C189.575,135.899,188.895,136.04,188.277,136.362z"/>
<path fill="#A09E6D" d="M166.622,144.833c0.133,0.406-0.285,0.49-0.149,0.897l1.102,0.645
	C168.159,145.361,167.735,144.15,166.622,144.833z"/>
<path fill="#A09E6D" d="M180.69,137.73c0.138-0.76,0.078-1.543-0.175-2.273c-1.093-0.381-1.578-0.212-1.81,0.231
	c-0.118,0.266-0.186,0.551-0.202,0.842c-0.046,0.322-0.074,0.679-0.127,1.036c0.018-0.081,0.055-0.156,0.106-0.221
	C179.856,138.209,180.463,138.193,180.69,137.73z"/>
<path fill="#A09E6D" d="M177.804,139.069c1.091,0.715,0.472-0.356,0.505-1.18C178.241,138.318,178.068,138.724,177.804,139.069z"/>
<path fill="#A09E6D" d="M191.338,121.873c-0.178-0.024-0.344,0.093-0.381,0.269c-0.091,0.349-0.102,0.714-0.032,1.068
	c-0.752,0.541,2.749,1.156,1.737,1.322c1.318,0.763,0.767-0.648-0.065-1.678C192.294,122.399,191.852,122.055,191.338,121.873z"/>
<path fill="#A09E6D" d="M175.91,134.135l-0.91-0.798l-0.914-0.789l-0.968,0.869L175.91,134.135z"/>
<path fill="#A09E6D" d="M178.642,124.529l-1.383,1.758c0.394,0.109,0.688,0.438,0.751,0.842
	C178.494,125.927,179.462,124.724,178.642,124.529z"/>
<path fill="#A09E6D" d="M177.884,128.887c0.184-0.567,0.227-1.17,0.126-1.757C177.688,127.661,177.641,128.315,177.884,128.887z"/>
<path fill="#A09E6D" d="M174.203,130.182l0.692-1.282l-0.728,0.818c-0.183,0.203-0.359,0.407-0.508,0.553l-0.24,0.246l0.393-0.166
	l0.271-0.115L174.203,130.182z"/>
<path fill="#A09E6D" d="M182.738,102.283l-0.797-2.306c-0.974-0.224-1.577,0.391-1.196,1.231
	C181.423,101.753,181.794,102.613,182.738,102.283z"/>
<path fill="#A09E6D" d="M173.27,107.321l0.627,0.55l0.626,0.559c0.69-0.404,1.46-0.648,2.256-0.717L173.27,107.321z"/>
<path fill="#A09E6D" d="M171.524,101.879c0.483,0.11,0.932,0.679,1.348,0.996c0.161,0.161,0.391,0.232,0.615,0.191
	c0.125-0.043,0.236-0.12,0.319-0.223c0.127-0.161,0.23-0.339,0.306-0.529c-0.49-0.118-1.188-0.878-1.738-1.269
	C171.825,100.651,171.422,100.61,171.524,101.879z"/>
<path fill="#A09E6D" d="M175.514,69.222l-2.802,0.865l0.258,0.499l5.352-2.213L175.514,69.222z"/>
<path fill="#A09E6D" d="M150.031,55.68c0.681-0.242,0.703-0.802,0.662-1.321c-0.032-0.523-0.086-1.038,0.541-1.229
	c-2.012-0.056-1.87-1.114-4.249,1.933C147.401,57.586,149.994,53.039,150.031,55.68z"/>
<path fill="#A09E6D" d="M151.234,53.13c0.38,0.014,0.761-0.005,1.138-0.055C151.993,53.015,151.606,53.034,151.234,53.13z"/>
<path fill="#A09E6D" d="M109.557,194.676c0,0-0.151,0.209-0.305,0.407l-0.309,0.401l0.332,0.158c0.2,0.098,0.465,0.213,0.732,0.327
	l1.072,0.457l-0.767-0.874L109.557,194.676z"/>
<path fill="#A09E6D" d="M112.078,190.717l1.02,3.581l0.316-1.734l0.296-1.731C113.313,191.057,112.528,191.494,112.078,190.717z"/>
<path fill="#A09E6D" d="M69.562,42.994l0.926,0.708l0.91,0.714l-0.294-0.844C70.506,42.792,70.194,42.864,69.562,42.994z"/>
<path fill="#A09E6D" d="M52.682,49.804l2.39,2.235l0.283-0.156l-1.331-1.044L52.682,49.804z"/>
<path fill="#A09E6D" d="M48.449,65.961c0.2-0.261,0.317-0.576,0.336-0.904c0.031-0.175,0.076-0.348,0.135-0.516
	c-0.487,0.192-1.015,0.259-1.535,0.196C46.806,64.742,46.692,64.849,48.449,65.961z"/>
</svg>
